solid Base
   facet normal 2.281986e-01 0.000000e+00 -9.736146e-01
      outer loop
         vertex 1.600000e+02 2.000000e+00 1.476005e+00
         vertex 1.600000e+02 0.000000e+00 1.476005e+00
         vertex 1.544085e+02 0.000000e+00 1.654625e-01
      endloop
   endfacet
   facet normal 2.281986e-01 0.000000e+00 -9.736146e-01
      outer loop
         vertex 1.600000e+02 2.000000e+00 1.476005e+00
         vertex 1.544085e+02 0.000000e+00 1.654625e-01
         vertex 1.544085e+02 2.000000e+00 1.654625e-01
      endloop
   endfacet
   facet normal 0.000000e+00 -0.000000e+00 -1.000000e+00
      outer loop
         vertex 1.544085e+02 2.000000e+00 1.654625e-01
         vertex 1.544085e+02 0.000000e+00 1.654625e-01
         vertex 1.486655e+02 0.000000e+00 1.654625e-01
      endloop
   endfacet
   facet normal -0.000000e+00 0.000000e+00 -1.000000e+00
      outer loop
         vertex 1.544085e+02 2.000000e+00 1.654625e-01
         vertex 1.486655e+02 0.000000e+00 1.654625e-01
         vertex 1.486655e+02 2.000000e+00 1.654625e-01
      endloop
   endfacet
   facet normal -2.281983e-01 -0.000000e+00 -9.736147e-01
      outer loop
         vertex 1.486655e+02 2.000000e+00 1.654625e-01
         vertex 1.486655e+02 0.000000e+00 1.654625e-01
         vertex 1.430741e+02 0.000000e+00 1.476005e+00
      endloop
   endfacet
   facet normal -2.281983e-01 0.000000e+00 -9.736147e-01
      outer loop
         vertex 1.486655e+02 2.000000e+00 1.654625e-01
         vertex 1.430741e+02 0.000000e+00 1.476005e+00
         vertex 1.430741e+02 2.000000e+00 1.476005e+00
      endloop
   endfacet
   facet normal -2.726314e-01 -0.000000e+00 -9.621186e-01
      outer loop
         vertex 1.430741e+02 2.000000e+00 1.476005e+00
         vertex 1.430741e+02 0.000000e+00 1.476005e+00
         vertex 1.224963e+02 2.000000e+00 7.307030e+00
      endloop
   endfacet
   facet normal -2.726314e-01 -0.000000e+00 -9.621186e-01
      outer loop
         vertex 1.224963e+02 2.000000e+00 7.307030e+00
         vertex 1.430741e+02 0.000000e+00 1.476005e+00
         vertex 1.224963e+02 0.000000e+00 7.307030e+00
      endloop
   endfacet
   facet normal -1.565880e-01 -0.000000e+00 -9.876640e-01
      outer loop
         vertex 1.224963e+02 2.000000e+00 7.307030e+00
         vertex 1.224963e+02 0.000000e+00 7.307030e+00
         vertex 1.013722e+02 2.000000e+00 1.065613e+01
      endloop
   endfacet
   facet normal -1.565880e-01 -0.000000e+00 -9.876640e-01
      outer loop
         vertex 1.013722e+02 2.000000e+00 1.065613e+01
         vertex 1.224963e+02 0.000000e+00 7.307030e+00
         vertex 1.013722e+02 0.000000e+00 1.065613e+01
      endloop
   endfacet
   facet normal -3.833359e-02 -0.000000e+00 -9.992650e-01
      outer loop
         vertex 1.013722e+02 2.000000e+00 1.065613e+01
         vertex 1.013722e+02 0.000000e+00 1.065613e+01
         vertex 8.000000e+01 2.000000e+00 1.147600e+01
      endloop
   endfacet
   facet normal -3.833359e-02 -0.000000e+00 -9.992650e-01
      outer loop
         vertex 8.000000e+01 2.000000e+00 1.147600e+01
         vertex 1.013722e+02 0.000000e+00 1.065613e+01
         vertex 8.000000e+01 0.000000e+00 1.147600e+01
      endloop
   endfacet
   facet normal 3.833359e-02 0.000000e+00 -9.992650e-01
      outer loop
         vertex 8.000000e+01 2.000000e+00 1.147600e+01
         vertex 8.000000e+01 0.000000e+00 1.147600e+01
         vertex 5.862777e+01 2.000000e+00 1.065613e+01
      endloop
   endfacet
   facet normal 3.833359e-02 0.000000e+00 -9.992650e-01
      outer loop
         vertex 5.862777e+01 2.000000e+00 1.065613e+01
         vertex 8.000000e+01 0.000000e+00 1.147600e+01
         vertex 5.862777e+01 0.000000e+00 1.065613e+01
      endloop
   endfacet
   facet normal 1.565880e-01 0.000000e+00 -9.876640e-01
      outer loop
         vertex 5.862777e+01 2.000000e+00 1.065613e+01
         vertex 5.862777e+01 0.000000e+00 1.065613e+01
         vertex 3.750366e+01 2.000000e+00 7.307030e+00
      endloop
   endfacet
   facet normal 1.565880e-01 0.000000e+00 -9.876640e-01
      outer loop
         vertex 3.750366e+01 2.000000e+00 7.307030e+00
         vertex 5.862777e+01 0.000000e+00 1.065613e+01
         vertex 3.750366e+01 0.000000e+00 7.307030e+00
      endloop
   endfacet
   facet normal 2.726314e-01 0.000000e+00 -9.621186e-01
      outer loop
         vertex 3.750366e+01 2.000000e+00 7.307030e+00
         vertex 3.750366e+01 0.000000e+00 7.307030e+00
         vertex 1.692592e+01 2.000000e+00 1.476005e+00
      endloop
   endfacet
   facet normal 2.726314e-01 0.000000e+00 -9.621186e-01
      outer loop
         vertex 1.692592e+01 2.000000e+00 1.476005e+00
         vertex 3.750366e+01 0.000000e+00 7.307030e+00
         vertex 1.692592e+01 0.000000e+00 1.476005e+00
      endloop
   endfacet
   facet normal 2.281983e-01 0.000000e+00 -9.736147e-01
      outer loop
         vertex 1.692592e+01 2.000000e+00 1.476005e+00
         vertex 1.692592e+01 0.000000e+00 1.476005e+00
         vertex 1.133446e+01 0.000000e+00 1.654625e-01
      endloop
   endfacet
   facet normal 2.281983e-01 0.000000e+00 -9.736147e-01
      outer loop
         vertex 1.692592e+01 2.000000e+00 1.476005e+00
         vertex 1.133446e+01 0.000000e+00 1.654625e-01
         vertex 1.133446e+01 2.000000e+00 1.654625e-01
      endloop
   endfacet
   facet normal 0.000000e+00 -0.000000e+00 -1.000000e+00
      outer loop
         vertex 1.133446e+01 2.000000e+00 1.654625e-01
         vertex 1.133446e+01 0.000000e+00 1.654625e-01
         vertex 5.591460e+00 0.000000e+00 1.654625e-01
      endloop
   endfacet
   facet normal -0.000000e+00 0.000000e+00 -1.000000e+00
      outer loop
         vertex 1.133446e+01 2.000000e+00 1.654625e-01
         vertex 5.591460e+00 0.000000e+00 1.654625e-01
         vertex 5.591460e+00 2.000000e+00 1.654625e-01
      endloop
   endfacet
   facet normal -2.281986e-01 -0.000000e+00 -9.736146e-01
      outer loop
         vertex 5.591460e+00 2.000000e+00 1.654625e-01
         vertex 5.591460e+00 0.000000e+00 1.654625e-01
         vertex 0.000000e+00 0.000000e+00 1.476005e+00
      endloop
   endfacet
   facet normal -2.281986e-01 0.000000e+00 -9.736146e-01
      outer loop
         vertex 5.591460e+00 2.000000e+00 1.654625e-01
         vertex 0.000000e+00 0.000000e+00 1.476005e+00
         vertex 0.000000e+00 2.000000e+00 1.476005e+00
      endloop
   endfacet
   facet normal -1.000000e+00 -0.000000e+00 -0.000000e+00
      outer loop
         vertex 0.000000e+00 2.000000e+00 2.283618e+02
         vertex 0.000000e+00 2.000000e+00 1.476005e+00
         vertex 0.000000e+00 0.000000e+00 2.283618e+02
      endloop
   endfacet
   facet normal -1.000000e+00 0.000000e+00 0.000000e+00
      outer loop
         vertex 0.000000e+00 0.000000e+00 2.283618e+02
         vertex 0.000000e+00 2.000000e+00 1.476005e+00
         vertex 0.000000e+00 0.000000e+00 1.476005e+00
      endloop
   endfacet
   facet normal -4.794541e-01 0.000000e+00 8.775669e-01
      outer loop
         vertex 0.000000e+00 2.000000e+00 2.283618e+02
         vertex 0.000000e+00 0.000000e+00 2.283618e+02
         vertex 1.644473e+01 0.000000e+00 2.373463e+02
      endloop
   endfacet
   facet normal -4.794541e-01 0.000000e+00 8.775669e-01
      outer loop
         vertex 0.000000e+00 2.000000e+00 2.283618e+02
         vertex 1.644473e+01 0.000000e+00 2.373463e+02
         vertex 1.644473e+01 2.000000e+00 2.373463e+02
      endloop
   endfacet
   facet normal -3.662947e-01 0.000000e+00 9.304989e-01
      outer loop
         vertex 1.644473e+01 2.000000e+00 2.373463e+02
         vertex 1.644473e+01 0.000000e+00 2.373463e+02
         vertex 3.388135e+01 0.000000e+00 2.442103e+02
      endloop
   endfacet
   facet normal -3.662947e-01 0.000000e+00 9.304989e-01
      outer loop
         vertex 1.644473e+01 2.000000e+00 2.373463e+02
         vertex 3.388135e+01 0.000000e+00 2.442103e+02
         vertex 3.388135e+01 2.000000e+00 2.442103e+02
      endloop
   endfacet
   facet normal -2.474198e-01 0.000000e+00 9.689084e-01
      outer loop
         vertex 3.388135e+01 2.000000e+00 2.442103e+02
         vertex 3.388135e+01 0.000000e+00 2.442103e+02
         vertex 5.203772e+01 0.000000e+00 2.488467e+02
      endloop
   endfacet
   facet normal -2.474198e-01 0.000000e+00 9.689084e-01
      outer loop
         vertex 3.388135e+01 2.000000e+00 2.442103e+02
         vertex 5.203772e+01 0.000000e+00 2.488467e+02
         vertex 5.203772e+01 2.000000e+00 2.488467e+02
      endloop
   endfacet
   facet normal -1.246826e-01 0.000000e+00 9.921967e-01
      outer loop
         vertex 5.203772e+01 2.000000e+00 2.488467e+02
         vertex 5.203772e+01 0.000000e+00 2.488467e+02
         vertex 7.063050e+01 0.000000e+00 2.511831e+02
      endloop
   endfacet
   facet normal -1.246826e-01 0.000000e+00 9.921967e-01
      outer loop
         vertex 5.203772e+01 2.000000e+00 2.488467e+02
         vertex 7.063050e+01 0.000000e+00 2.511831e+02
         vertex 7.063050e+01 2.000000e+00 2.511831e+02
      endloop
   endfacet
   facet normal 0.000000e+00 0.000000e+00 1.000000e+00
      outer loop
         vertex 7.063050e+01 2.000000e+00 2.511831e+02
         vertex 7.063050e+01 0.000000e+00 2.511831e+02
         vertex 8.936950e+01 0.000000e+00 2.511831e+02
      endloop
   endfacet
   facet normal -0.000000e+00 0.000000e+00 1.000000e+00
      outer loop
         vertex 7.063050e+01 2.000000e+00 2.511831e+02
         vertex 8.936950e+01 0.000000e+00 2.511831e+02
         vertex 8.936950e+01 2.000000e+00 2.511831e+02
      endloop
   endfacet
   facet normal 1.246826e-01 0.000000e+00 9.921967e-01
      outer loop
         vertex 8.936950e+01 2.000000e+00 2.511831e+02
         vertex 8.936950e+01 0.000000e+00 2.511831e+02
         vertex 1.079623e+02 0.000000e+00 2.488467e+02
      endloop
   endfacet
   facet normal 1.246826e-01 0.000000e+00 9.921967e-01
      outer loop
         vertex 8.936950e+01 2.000000e+00 2.511831e+02
         vertex 1.079623e+02 0.000000e+00 2.488467e+02
         vertex 1.079623e+02 2.000000e+00 2.488467e+02
      endloop
   endfacet
   facet normal 2.474198e-01 0.000000e+00 9.689084e-01
      outer loop
         vertex 1.079623e+02 2.000000e+00 2.488467e+02
         vertex 1.079623e+02 0.000000e+00 2.488467e+02
         vertex 1.261186e+02 0.000000e+00 2.442103e+02
      endloop
   endfacet
   facet normal 2.474198e-01 0.000000e+00 9.689084e-01
      outer loop
         vertex 1.079623e+02 2.000000e+00 2.488467e+02
         vertex 1.261186e+02 0.000000e+00 2.442103e+02
         vertex 1.261186e+02 2.000000e+00 2.442103e+02
      endloop
   endfacet
   facet normal 3.662947e-01 0.000000e+00 9.304989e-01
      outer loop
         vertex 1.261186e+02 2.000000e+00 2.442103e+02
         vertex 1.261186e+02 0.000000e+00 2.442103e+02
         vertex 1.435553e+02 0.000000e+00 2.373463e+02
      endloop
   endfacet
   facet normal 3.662947e-01 0.000000e+00 9.304989e-01
      outer loop
         vertex 1.261186e+02 2.000000e+00 2.442103e+02
         vertex 1.435553e+02 0.000000e+00 2.373463e+02
         vertex 1.435553e+02 2.000000e+00 2.373463e+02
      endloop
   endfacet
   facet normal 4.794541e-01 0.000000e+00 8.775669e-01
      outer loop
         vertex 1.435553e+02 2.000000e+00 2.373463e+02
         vertex 1.435553e+02 0.000000e+00 2.373463e+02
         vertex 1.600000e+02 0.000000e+00 2.283618e+02
      endloop
   endfacet
   facet normal 4.794541e-01 0.000000e+00 8.775669e-01
      outer loop
         vertex 1.435553e+02 2.000000e+00 2.373463e+02
         vertex 1.600000e+02 0.000000e+00 2.283618e+02
         vertex 1.600000e+02 2.000000e+00 2.283618e+02
      endloop
   endfacet
   facet normal 1.000000e+00 0.000000e+00 -0.000000e+00
      outer loop
         vertex 1.600000e+02 2.000000e+00 1.476005e+00
         vertex 1.600000e+02 2.000000e+00 2.283618e+02
         vertex 1.600000e+02 0.000000e+00 1.476005e+00
      endloop
   endfacet
   facet normal 1.000000e+00 0.000000e+00 0.000000e+00
      outer loop
         vertex 1.600000e+02 0.000000e+00 1.476005e+00
         vertex 1.600000e+02 2.000000e+00 2.283618e+02
         vertex 1.600000e+02 0.000000e+00 2.283618e+02
      endloop
   endfacet
   facet normal 0.000000e+00 1.000000e+00 0.000000e+00
      outer loop
         vertex 5.591460e+00 2.000000e+00 1.654625e-01
         vertex 0.000000e+00 2.000000e+00 1.476005e+00
         vertex 0.000000e+00 2.000000e+00 2.283618e+02
      endloop
   endfacet
   facet normal 0.000000e+00 1.000000e+00 0.000000e+00
      outer loop
         vertex 1.486655e+02 2.000000e+00 1.654625e-01
         vertex 1.600000e+02 2.000000e+00 2.283618e+02
         vertex 1.544085e+02 2.000000e+00 1.654625e-01
      endloop
   endfacet
   facet normal 0.000000e+00 1.000000e+00 0.000000e+00
      outer loop
         vertex 1.544085e+02 2.000000e+00 1.654625e-01
         vertex 1.600000e+02 2.000000e+00 2.283618e+02
         vertex 1.600000e+02 2.000000e+00 1.476005e+00
      endloop
   endfacet
   facet normal 0.000000e+00 1.000000e+00 -0.000000e+00
      outer loop
         vertex 1.486655e+02 2.000000e+00 1.654625e-01
         vertex 1.430741e+02 2.000000e+00 1.476005e+00
         vertex 1.600000e+02 2.000000e+00 2.283618e+02
      endloop
   endfacet
   facet normal 0.000000e+00 1.000000e+00 0.000000e+00
      outer loop
         vertex 1.600000e+02 2.000000e+00 2.283618e+02
         vertex 1.430741e+02 2.000000e+00 1.476005e+00
         vertex 1.224963e+02 2.000000e+00 7.307030e+00
      endloop
   endfacet
   facet normal 0.000000e+00 1.000000e+00 0.000000e+00
      outer loop
         vertex 1.600000e+02 2.000000e+00 2.283618e+02
         vertex 1.224963e+02 2.000000e+00 7.307030e+00
         vertex 1.435553e+02 2.000000e+00 2.373463e+02
      endloop
   endfacet
   facet normal 0.000000e+00 1.000000e+00 0.000000e+00
      outer loop
         vertex 1.435553e+02 2.000000e+00 2.373463e+02
         vertex 1.224963e+02 2.000000e+00 7.307030e+00
         vertex 1.013722e+02 2.000000e+00 1.065613e+01
      endloop
   endfacet
   facet normal 0.000000e+00 1.000000e+00 -0.000000e+00
      outer loop
         vertex 5.591460e+00 2.000000e+00 1.654625e-01
         vertex 0.000000e+00 2.000000e+00 2.283618e+02
         vertex 1.133446e+01 2.000000e+00 1.654625e-01
      endloop
   endfacet
   facet normal -0.000000e+00 1.000000e+00 0.000000e+00
      outer loop
         vertex 7.063050e+01 2.000000e+00 2.511831e+02
         vertex 8.936950e+01 2.000000e+00 2.511831e+02
         vertex 8.000000e+01 2.000000e+00 1.147600e+01
      endloop
   endfacet
   facet normal 0.000000e+00 1.000000e+00 0.000000e+00
      outer loop
         vertex 8.000000e+01 2.000000e+00 1.147600e+01
         vertex 8.936950e+01 2.000000e+00 2.511831e+02
         vertex 1.079623e+02 2.000000e+00 2.488467e+02
      endloop
   endfacet
   facet normal -0.000000e+00 1.000000e+00 0.000000e+00
      outer loop
         vertex 8.000000e+01 2.000000e+00 1.147600e+01
         vertex 1.079623e+02 2.000000e+00 2.488467e+02
         vertex 1.013722e+02 2.000000e+00 1.065613e+01
      endloop
   endfacet
   facet normal 0.000000e+00 1.000000e+00 0.000000e+00
      outer loop
         vertex 1.013722e+02 2.000000e+00 1.065613e+01
         vertex 1.079623e+02 2.000000e+00 2.488467e+02
         vertex 1.261186e+02 2.000000e+00 2.442103e+02
      endloop
   endfacet
   facet normal 0.000000e+00 1.000000e+00 0.000000e+00
      outer loop
         vertex 1.013722e+02 2.000000e+00 1.065613e+01
         vertex 1.261186e+02 2.000000e+00 2.442103e+02
         vertex 1.435553e+02 2.000000e+00 2.373463e+02
      endloop
   endfacet
   facet normal 0.000000e+00 1.000000e+00 0.000000e+00
      outer loop
         vertex 7.063050e+01 2.000000e+00 2.511831e+02
         vertex 8.000000e+01 2.000000e+00 1.147600e+01
         vertex 5.203772e+01 2.000000e+00 2.488467e+02
      endloop
   endfacet
   facet normal 0.000000e+00 1.000000e+00 0.000000e+00
      outer loop
         vertex 5.203772e+01 2.000000e+00 2.488467e+02
         vertex 8.000000e+01 2.000000e+00 1.147600e+01
         vertex 5.862777e+01 2.000000e+00 1.065613e+01
      endloop
   endfacet
   facet normal 0.000000e+00 1.000000e+00 0.000000e+00
      outer loop
         vertex 5.203772e+01 2.000000e+00 2.488467e+02
         vertex 5.862777e+01 2.000000e+00 1.065613e+01
         vertex 3.388135e+01 2.000000e+00 2.442103e+02
      endloop
   endfacet
   facet normal 0.000000e+00 1.000000e+00 0.000000e+00
      outer loop
         vertex 3.388135e+01 2.000000e+00 2.442103e+02
         vertex 5.862777e+01 2.000000e+00 1.065613e+01
         vertex 1.644473e+01 2.000000e+00 2.373463e+02
      endloop
   endfacet
   facet normal 0.000000e+00 1.000000e+00 0.000000e+00
      outer loop
         vertex 1.644473e+01 2.000000e+00 2.373463e+02
         vertex 5.862777e+01 2.000000e+00 1.065613e+01
         vertex 3.750366e+01 2.000000e+00 7.307030e+00
      endloop
   endfacet
   facet normal 0.000000e+00 1.000000e+00 0.000000e+00
      outer loop
         vertex 1.644473e+01 2.000000e+00 2.373463e+02
         vertex 3.750366e+01 2.000000e+00 7.307030e+00
         vertex 0.000000e+00 2.000000e+00 2.283618e+02
      endloop
   endfacet
   facet normal 0.000000e+00 1.000000e+00 0.000000e+00
      outer loop
         vertex 0.000000e+00 2.000000e+00 2.283618e+02
         vertex 3.750366e+01 2.000000e+00 7.307030e+00
         vertex 1.692592e+01 2.000000e+00 1.476005e+00
      endloop
   endfacet
   facet normal 0.000000e+00 1.000000e+00 0.000000e+00
      outer loop
         vertex 0.000000e+00 2.000000e+00 2.283618e+02
         vertex 1.692592e+01 2.000000e+00 1.476005e+00
         vertex 1.133446e+01 2.000000e+00 1.654625e-01
      endloop
   endfacet
   facet normal 0.000000e+00 -1.000000e+00 0.000000e+00
      outer loop
         vertex 1.430741e+02 0.000000e+00 1.476005e+00
         vertex 1.486655e+02 0.000000e+00 1.654625e-01
         vertex 1.600000e+02 0.000000e+00 2.283618e+02
      endloop
   endfacet
   facet normal 0.000000e+00 -1.000000e+00 0.000000e+00
      outer loop
         vertex 1.600000e+02 0.000000e+00 2.283618e+02
         vertex 1.486655e+02 0.000000e+00 1.654625e-01
         vertex 1.544085e+02 0.000000e+00 1.654625e-01
      endloop
   endfacet
   facet normal 0.000000e+00 -1.000000e+00 -0.000000e+00
      outer loop
         vertex 1.600000e+02 0.000000e+00 2.283618e+02
         vertex 1.544085e+02 0.000000e+00 1.654625e-01
         vertex 1.600000e+02 0.000000e+00 1.476005e+00
      endloop
   endfacet
   facet normal 0.000000e+00 -1.000000e+00 0.000000e+00
      outer loop
         vertex 0.000000e+00 0.000000e+00 1.476005e+00
         vertex 5.591460e+00 0.000000e+00 1.654625e-01
         vertex 0.000000e+00 0.000000e+00 2.283618e+02
      endloop
   endfacet
   facet normal 0.000000e+00 -1.000000e+00 0.000000e+00
      outer loop
         vertex 0.000000e+00 0.000000e+00 2.283618e+02
         vertex 5.591460e+00 0.000000e+00 1.654625e-01
         vertex 1.133446e+01 0.000000e+00 1.654625e-01
      endloop
   endfacet
   facet normal 0.000000e+00 -1.000000e+00 0.000000e+00
      outer loop
         vertex 1.133446e+01 0.000000e+00 1.654625e-01
         vertex 1.692592e+01 0.000000e+00 1.476005e+00
         vertex 0.000000e+00 0.000000e+00 2.283618e+02
      endloop
   endfacet
   facet normal 0.000000e+00 -1.000000e+00 0.000000e+00
      outer loop
         vertex 0.000000e+00 0.000000e+00 2.283618e+02
         vertex 1.692592e+01 0.000000e+00 1.476005e+00
         vertex 3.750366e+01 0.000000e+00 7.307030e+00
      endloop
   endfacet
   facet normal 0.000000e+00 -1.000000e+00 0.000000e+00
      outer loop
         vertex 0.000000e+00 0.000000e+00 2.283618e+02
         vertex 3.750366e+01 0.000000e+00 7.307030e+00
         vertex 1.644473e+01 0.000000e+00 2.373463e+02
      endloop
   endfacet
   facet normal 0.000000e+00 -1.000000e+00 0.000000e+00
      outer loop
         vertex 1.644473e+01 0.000000e+00 2.373463e+02
         vertex 3.750366e+01 0.000000e+00 7.307030e+00
         vertex 5.862777e+01 0.000000e+00 1.065613e+01
      endloop
   endfacet
   facet normal 0.000000e+00 -1.000000e+00 0.000000e+00
      outer loop
         vertex 1.430741e+02 0.000000e+00 1.476005e+00
         vertex 1.600000e+02 0.000000e+00 2.283618e+02
         vertex 1.224963e+02 0.000000e+00 7.307030e+00
      endloop
   endfacet
   facet normal 0.000000e+00 -1.000000e+00 0.000000e+00
      outer loop
         vertex 1.224963e+02 0.000000e+00 7.307030e+00
         vertex 1.600000e+02 0.000000e+00 2.283618e+02
         vertex 1.435553e+02 0.000000e+00 2.373463e+02
      endloop
   endfacet
   facet normal 0.000000e+00 -1.000000e+00 0.000000e+00
      outer loop
         vertex 1.224963e+02 0.000000e+00 7.307030e+00
         vertex 1.435553e+02 0.000000e+00 2.373463e+02
         vertex 1.013722e+02 0.000000e+00 1.065613e+01
      endloop
   endfacet
   facet normal 0.000000e+00 -1.000000e+00 -0.000000e+00
      outer loop
         vertex 8.936950e+01 0.000000e+00 2.511831e+02
         vertex 8.000000e+01 0.000000e+00 1.147600e+01
         vertex 1.079623e+02 0.000000e+00 2.488467e+02
      endloop
   endfacet
   facet normal 0.000000e+00 -1.000000e+00 0.000000e+00
      outer loop
         vertex 1.079623e+02 0.000000e+00 2.488467e+02
         vertex 8.000000e+01 0.000000e+00 1.147600e+01
         vertex 1.013722e+02 0.000000e+00 1.065613e+01
      endloop
   endfacet
   facet normal 0.000000e+00 -1.000000e+00 -0.000000e+00
      outer loop
         vertex 1.079623e+02 0.000000e+00 2.488467e+02
         vertex 1.013722e+02 0.000000e+00 1.065613e+01
         vertex 1.261186e+02 0.000000e+00 2.442103e+02
      endloop
   endfacet
   facet normal 0.000000e+00 -1.000000e+00 -0.000000e+00
      outer loop
         vertex 1.261186e+02 0.000000e+00 2.442103e+02
         vertex 1.013722e+02 0.000000e+00 1.065613e+01
         vertex 1.435553e+02 0.000000e+00 2.373463e+02
      endloop
   endfacet
   facet normal -0.000000e+00 -1.000000e+00 0.000000e+00
      outer loop
         vertex 8.936950e+01 0.000000e+00 2.511831e+02
         vertex 7.063050e+01 0.000000e+00 2.511831e+02
         vertex 8.000000e+01 0.000000e+00 1.147600e+01
      endloop
   endfacet
   facet normal 0.000000e+00 -1.000000e+00 0.000000e+00
      outer loop
         vertex 8.000000e+01 0.000000e+00 1.147600e+01
         vertex 7.063050e+01 0.000000e+00 2.511831e+02
         vertex 5.203772e+01 0.000000e+00 2.488467e+02
      endloop
   endfacet
   facet normal -0.000000e+00 -1.000000e+00 0.000000e+00
      outer loop
         vertex 8.000000e+01 0.000000e+00 1.147600e+01
         vertex 5.203772e+01 0.000000e+00 2.488467e+02
         vertex 5.862777e+01 0.000000e+00 1.065613e+01
      endloop
   endfacet
   facet normal 0.000000e+00 -1.000000e+00 0.000000e+00
      outer loop
         vertex 5.862777e+01 0.000000e+00 1.065613e+01
         vertex 5.203772e+01 0.000000e+00 2.488467e+02
         vertex 3.388135e+01 0.000000e+00 2.442103e+02
      endloop
   endfacet
   facet normal 0.000000e+00 -1.000000e+00 0.000000e+00
      outer loop
         vertex 5.862777e+01 0.000000e+00 1.065613e+01
         vertex 3.388135e+01 0.000000e+00 2.442103e+02
         vertex 1.644473e+01 0.000000e+00 2.373463e+02
      endloop
   endfacet
endsolid