solid ExtenderBase
   facet normal 0.000000e+00 1.000000e+00 0.000000e+00
      outer loop
         vertex 4.511189e+00 6.000000e+01 1.072635e+01
         vertex 5.400000e+00 6.000000e+01 6.800000e+00
         vertex 4.700000e+00 6.000000e+01 6.612436e+00
      endloop
   endfacet
   facet normal 0.000000e+00 1.000000e+00 0.000000e+00
      outer loop
         vertex 4.187565e+00 6.000000e+01 4.700000e+00
         vertex 1.652385e-01 6.000000e+01 4.074379e+00
         vertex 4.000000e+00 6.000000e+01 5.400000e+00
      endloop
   endfacet
   facet normal 0.000000e+00 1.000000e+00 0.000000e+00
      outer loop
         vertex 4.000000e+00 6.000000e+01 5.400000e+00
         vertex 1.652385e-01 6.000000e+01 4.074379e+00
         vertex 1.844391e-02 6.000000e+01 5.845929e+00
      endloop
   endfacet
   facet normal 0.000000e+00 1.000000e+00 -0.000000e+00
      outer loop
         vertex 4.000000e+00 6.000000e+01 5.400000e+00
         vertex 1.844391e-02 6.000000e+01 5.845929e+00
         vertex 4.187565e+00 6.000000e+01 6.100000e+00
      endloop
   endfacet
   facet normal 0.000000e+00 1.000000e+00 0.000000e+00
      outer loop
         vertex 5.400000e+00 6.000000e+01 4.000000e+00
         vertex 3.646623e+00 6.000000e+01 2.925871e-01
         vertex 4.700000e+00 6.000000e+01 4.187565e+00
      endloop
   endfacet
   facet normal 0.000000e+00 1.000000e+00 0.000000e+00
      outer loop
         vertex 4.700000e+00 6.000000e+01 4.187565e+00
         vertex 3.646623e+00 6.000000e+01 2.925871e-01
         vertex 2.083251e+00 6.000000e+01 1.138641e+00
      endloop
   endfacet
   facet normal 0.000000e+00 1.000000e+00 0.000000e+00
      outer loop
         vertex 4.700000e+00 6.000000e+01 4.187565e+00
         vertex 2.083251e+00 6.000000e+01 1.138641e+00
         vertex 4.187565e+00 6.000000e+01 4.700000e+00
      endloop
   endfacet
   facet normal 0.000000e+00 1.000000e+00 0.000000e+00
      outer loop
         vertex 4.187565e+00 6.000000e+01 4.700000e+00
         vertex 2.083251e+00 6.000000e+01 1.138641e+00
         vertex 8.793012e-01 6.000000e+01 2.446480e+00
      endloop
   endfacet
   facet normal 0.000000e+00 1.000000e+00 0.000000e+00
      outer loop
         vertex 4.187565e+00 6.000000e+01 4.700000e+00
         vertex 8.793012e-01 6.000000e+01 2.446480e+00
         vertex 1.652385e-01 6.000000e+01 4.074379e+00
      endloop
   endfacet
   facet normal 0.000000e+00 1.000000e+00 0.000000e+00
      outer loop
         vertex 1.844391e-02 6.000000e+01 5.845929e+00
         vertex 4.548240e-01 6.000000e+01 7.569155e+00
         vertex 4.187565e+00 6.000000e+01 6.100000e+00
      endloop
   endfacet
   facet normal 0.000000e+00 1.000000e+00 0.000000e+00
      outer loop
         vertex 4.187565e+00 6.000000e+01 6.100000e+00
         vertex 4.548240e-01 6.000000e+01 7.569155e+00
         vertex 1.427091e+00 6.000000e+01 9.057321e+00
      endloop
   endfacet
   facet normal 0.000000e+00 1.000000e+00 -0.000000e+00
      outer loop
         vertex 4.187565e+00 6.000000e+01 6.100000e+00
         vertex 1.427091e+00 6.000000e+01 9.057321e+00
         vertex 4.700000e+00 6.000000e+01 6.612436e+00
      endloop
   endfacet
   facet normal 0.000000e+00 1.000000e+00 0.000000e+00
      outer loop
         vertex 4.700000e+00 6.000000e+01 6.612436e+00
         vertex 1.427091e+00 6.000000e+01 9.057321e+00
         vertex 2.829884e+00 6.000000e+01 1.014916e+01
      endloop
   endfacet
   facet normal 0.000000e+00 1.000000e+00 0.000000e+00
      outer loop
         vertex 4.700000e+00 6.000000e+01 6.612436e+00
         vertex 2.829884e+00 6.000000e+01 1.014916e+01
         vertex 4.511189e+00 6.000000e+01 1.072635e+01
      endloop
   endfacet
   facet normal 0.000000e+00 1.000000e+00 0.000000e+00
      outer loop
         vertex 6.100000e+00 6.000000e+01 4.187565e+00
         vertex 7.153377e+00 6.000000e+01 2.925871e-01
         vertex 5.400000e+00 6.000000e+01 4.000000e+00
      endloop
   endfacet
   facet normal 0.000000e+00 1.000000e+00 0.000000e+00
      outer loop
         vertex 5.400000e+00 6.000000e+01 4.000000e+00
         vertex 7.153377e+00 6.000000e+01 2.925871e-01
         vertex 5.400000e+00 6.000000e+01 0.000000e+00
      endloop
   endfacet
   facet normal 0.000000e+00 1.000000e+00 0.000000e+00
      outer loop
         vertex 5.400000e+00 6.000000e+01 4.000000e+00
         vertex 5.400000e+00 6.000000e+01 0.000000e+00
         vertex 3.646623e+00 6.000000e+01 2.925871e-01
      endloop
   endfacet
   facet normal 0.000000e+00 1.000000e+00 0.000000e+00
      outer loop
         vertex 6.800000e+00 6.000000e+01 5.400000e+00
         vertex 1.063476e+01 6.000000e+01 4.074379e+00
         vertex 6.612436e+00 6.000000e+01 4.700000e+00
      endloop
   endfacet
   facet normal 0.000000e+00 1.000000e+00 0.000000e+00
      outer loop
         vertex 6.612436e+00 6.000000e+01 4.700000e+00
         vertex 1.063476e+01 6.000000e+01 4.074379e+00
         vertex 9.920699e+00 6.000000e+01 2.446480e+00
      endloop
   endfacet
   facet normal 0.000000e+00 1.000000e+00 0.000000e+00
      outer loop
         vertex 6.612436e+00 6.000000e+01 4.700000e+00
         vertex 9.920699e+00 6.000000e+01 2.446480e+00
         vertex 6.100000e+00 6.000000e+01 4.187565e+00
      endloop
   endfacet
   facet normal 0.000000e+00 1.000000e+00 0.000000e+00
      outer loop
         vertex 6.100000e+00 6.000000e+01 4.187565e+00
         vertex 9.920699e+00 6.000000e+01 2.446480e+00
         vertex 8.716749e+00 6.000000e+01 1.138641e+00
      endloop
   endfacet
   facet normal 0.000000e+00 1.000000e+00 0.000000e+00
      outer loop
         vertex 6.100000e+00 6.000000e+01 4.187565e+00
         vertex 8.716749e+00 6.000000e+01 1.138641e+00
         vertex 7.153377e+00 6.000000e+01 2.925871e-01
      endloop
   endfacet
   facet normal -0.000000e+00 1.000000e+00 0.000000e+00
      outer loop
         vertex 6.100000e+00 6.000000e+01 6.612436e+00
         vertex 9.372909e+00 6.000000e+01 9.057321e+00
         vertex 6.612436e+00 6.000000e+01 6.100000e+00
      endloop
   endfacet
   facet normal 0.000000e+00 1.000000e+00 0.000000e+00
      outer loop
         vertex 6.612436e+00 6.000000e+01 6.100000e+00
         vertex 9.372909e+00 6.000000e+01 9.057321e+00
         vertex 1.034518e+01 6.000000e+01 7.569155e+00
      endloop
   endfacet
   facet normal -0.000000e+00 1.000000e+00 0.000000e+00
      outer loop
         vertex 6.612436e+00 6.000000e+01 6.100000e+00
         vertex 1.034518e+01 6.000000e+01 7.569155e+00
         vertex 6.800000e+00 6.000000e+01 5.400000e+00
      endloop
   endfacet
   facet normal 0.000000e+00 1.000000e+00 0.000000e+00
      outer loop
         vertex 6.800000e+00 6.000000e+01 5.400000e+00
         vertex 1.034518e+01 6.000000e+01 7.569155e+00
         vertex 1.078156e+01 6.000000e+01 5.845929e+00
      endloop
   endfacet
   facet normal -0.000000e+00 1.000000e+00 0.000000e+00
      outer loop
         vertex 6.800000e+00 6.000000e+01 5.400000e+00
         vertex 1.078156e+01 6.000000e+01 5.845929e+00
         vertex 1.063476e+01 6.000000e+01 4.074379e+00
      endloop
   endfacet
   facet normal -0.000000e+00 1.000000e+00 0.000000e+00
      outer loop
         vertex 4.511189e+00 6.000000e+01 1.072635e+01
         vertex 5.400000e+00 6.000000e+01 1.080000e+01
         vertex 5.400000e+00 6.000000e+01 6.800000e+00
      endloop
   endfacet
   facet normal 0.000000e+00 1.000000e+00 0.000000e+00
      outer loop
         vertex 5.400000e+00 6.000000e+01 6.800000e+00
         vertex 5.400000e+00 6.000000e+01 1.080000e+01
         vertex 6.288811e+00 6.000000e+01 1.072635e+01
      endloop
   endfacet
   facet normal -0.000000e+00 1.000000e+00 0.000000e+00
      outer loop
         vertex 5.400000e+00 6.000000e+01 6.800000e+00
         vertex 6.288811e+00 6.000000e+01 1.072635e+01
         vertex 6.100000e+00 6.000000e+01 6.612436e+00
      endloop
   endfacet
   facet normal 0.000000e+00 1.000000e+00 0.000000e+00
      outer loop
         vertex 6.100000e+00 6.000000e+01 6.612436e+00
         vertex 6.288811e+00 6.000000e+01 1.072635e+01
         vertex 7.970116e+00 6.000000e+01 1.014916e+01
      endloop
   endfacet
   facet normal 0.000000e+00 1.000000e+00 0.000000e+00
      outer loop
         vertex 6.100000e+00 6.000000e+01 6.612436e+00
         vertex 7.970116e+00 6.000000e+01 1.014916e+01
         vertex 9.372909e+00 6.000000e+01 9.057321e+00
      endloop
   endfacet
   facet normal -0.000000e+00 -1.000000e+00 0.000000e+00
      outer loop
         vertex 5.400000e+00 0.000000e+00 4.000000e+00
         vertex 4.700000e+00 0.000000e+00 4.187565e+00
         vertex 3.646623e+00 0.000000e+00 2.925871e-01
      endloop
   endfacet
   facet normal 0.000000e+00 -1.000000e+00 -0.000000e+00
      outer loop
         vertex 4.000000e+00 0.000000e+00 5.400000e+00
         vertex 1.652385e-01 0.000000e+00 4.074379e+00
         vertex 4.187565e+00 0.000000e+00 4.700000e+00
      endloop
   endfacet
   facet normal 0.000000e+00 -1.000000e+00 0.000000e+00
      outer loop
         vertex 4.187565e+00 0.000000e+00 4.700000e+00
         vertex 1.652385e-01 0.000000e+00 4.074379e+00
         vertex 8.793012e-01 0.000000e+00 2.446480e+00
      endloop
   endfacet
   facet normal 0.000000e+00 -1.000000e+00 -0.000000e+00
      outer loop
         vertex 4.187565e+00 0.000000e+00 4.700000e+00
         vertex 8.793012e-01 0.000000e+00 2.446480e+00
         vertex 4.700000e+00 0.000000e+00 4.187565e+00
      endloop
   endfacet
   facet normal 0.000000e+00 -1.000000e+00 0.000000e+00
      outer loop
         vertex 4.700000e+00 0.000000e+00 4.187565e+00
         vertex 8.793012e-01 0.000000e+00 2.446480e+00
         vertex 2.083251e+00 0.000000e+00 1.138641e+00
      endloop
   endfacet
   facet normal 0.000000e+00 -1.000000e+00 0.000000e+00
      outer loop
         vertex 4.700000e+00 0.000000e+00 4.187565e+00
         vertex 2.083251e+00 0.000000e+00 1.138641e+00
         vertex 3.646623e+00 0.000000e+00 2.925871e-01
      endloop
   endfacet
   facet normal -0.000000e+00 -1.000000e+00 0.000000e+00
      outer loop
         vertex 4.700000e+00 0.000000e+00 6.612436e+00
         vertex 1.427091e+00 0.000000e+00 9.057321e+00
         vertex 4.187565e+00 0.000000e+00 6.100000e+00
      endloop
   endfacet
   facet normal 0.000000e+00 -1.000000e+00 0.000000e+00
      outer loop
         vertex 4.187565e+00 0.000000e+00 6.100000e+00
         vertex 1.427091e+00 0.000000e+00 9.057321e+00
         vertex 4.548240e-01 0.000000e+00 7.569155e+00
      endloop
   endfacet
   facet normal -0.000000e+00 -1.000000e+00 0.000000e+00
      outer loop
         vertex 4.187565e+00 0.000000e+00 6.100000e+00
         vertex 4.548240e-01 0.000000e+00 7.569155e+00
         vertex 4.000000e+00 0.000000e+00 5.400000e+00
      endloop
   endfacet
   facet normal 0.000000e+00 -1.000000e+00 0.000000e+00
      outer loop
         vertex 4.000000e+00 0.000000e+00 5.400000e+00
         vertex 4.548240e-01 0.000000e+00 7.569155e+00
         vertex 1.844391e-02 0.000000e+00 5.845929e+00
      endloop
   endfacet
   facet normal -0.000000e+00 -1.000000e+00 0.000000e+00
      outer loop
         vertex 4.000000e+00 0.000000e+00 5.400000e+00
         vertex 1.844391e-02 0.000000e+00 5.845929e+00
         vertex 1.652385e-01 0.000000e+00 4.074379e+00
      endloop
   endfacet
   facet normal 0.000000e+00 -1.000000e+00 0.000000e+00
      outer loop
         vertex 6.288811e+00 0.000000e+00 1.072635e+01
         vertex 5.400000e+00 0.000000e+00 6.800000e+00
         vertex 6.100000e+00 0.000000e+00 6.612436e+00
      endloop
   endfacet
   facet normal -0.000000e+00 -1.000000e+00 0.000000e+00
      outer loop
         vertex 6.288811e+00 0.000000e+00 1.072635e+01
         vertex 5.400000e+00 0.000000e+00 1.080000e+01
         vertex 5.400000e+00 0.000000e+00 6.800000e+00
      endloop
   endfacet
   facet normal 0.000000e+00 -1.000000e+00 0.000000e+00
      outer loop
         vertex 5.400000e+00 0.000000e+00 6.800000e+00
         vertex 5.400000e+00 0.000000e+00 1.080000e+01
         vertex 4.511189e+00 0.000000e+00 1.072635e+01
      endloop
   endfacet
   facet normal -0.000000e+00 -1.000000e+00 0.000000e+00
      outer loop
         vertex 5.400000e+00 0.000000e+00 6.800000e+00
         vertex 4.511189e+00 0.000000e+00 1.072635e+01
         vertex 4.700000e+00 0.000000e+00 6.612436e+00
      endloop
   endfacet
   facet normal 0.000000e+00 -1.000000e+00 0.000000e+00
      outer loop
         vertex 4.700000e+00 0.000000e+00 6.612436e+00
         vertex 4.511189e+00 0.000000e+00 1.072635e+01
         vertex 2.829884e+00 0.000000e+00 1.014916e+01
      endloop
   endfacet
   facet normal 0.000000e+00 -1.000000e+00 0.000000e+00
      outer loop
         vertex 4.700000e+00 0.000000e+00 6.612436e+00
         vertex 2.829884e+00 0.000000e+00 1.014916e+01
         vertex 1.427091e+00 0.000000e+00 9.057321e+00
      endloop
   endfacet
   facet normal 0.000000e+00 -1.000000e+00 0.000000e+00
      outer loop
         vertex 6.612436e+00 0.000000e+00 6.100000e+00
         vertex 9.372909e+00 0.000000e+00 9.057321e+00
         vertex 6.100000e+00 0.000000e+00 6.612436e+00
      endloop
   endfacet
   facet normal 0.000000e+00 -1.000000e+00 0.000000e+00
      outer loop
         vertex 6.100000e+00 0.000000e+00 6.612436e+00
         vertex 9.372909e+00 0.000000e+00 9.057321e+00
         vertex 7.970116e+00 0.000000e+00 1.014916e+01
      endloop
   endfacet
   facet normal 0.000000e+00 -1.000000e+00 0.000000e+00
      outer loop
         vertex 6.100000e+00 0.000000e+00 6.612436e+00
         vertex 7.970116e+00 0.000000e+00 1.014916e+01
         vertex 6.288811e+00 0.000000e+00 1.072635e+01
      endloop
   endfacet
   facet normal 0.000000e+00 -1.000000e+00 0.000000e+00
      outer loop
         vertex 6.612436e+00 0.000000e+00 4.700000e+00
         vertex 1.063476e+01 0.000000e+00 4.074379e+00
         vertex 6.800000e+00 0.000000e+00 5.400000e+00
      endloop
   endfacet
   facet normal 0.000000e+00 -1.000000e+00 0.000000e+00
      outer loop
         vertex 6.800000e+00 0.000000e+00 5.400000e+00
         vertex 1.063476e+01 0.000000e+00 4.074379e+00
         vertex 1.078156e+01 0.000000e+00 5.845929e+00
      endloop
   endfacet
   facet normal 0.000000e+00 -1.000000e+00 0.000000e+00
      outer loop
         vertex 6.800000e+00 0.000000e+00 5.400000e+00
         vertex 1.078156e+01 0.000000e+00 5.845929e+00
         vertex 6.612436e+00 0.000000e+00 6.100000e+00
      endloop
   endfacet
   facet normal 0.000000e+00 -1.000000e+00 0.000000e+00
      outer loop
         vertex 6.612436e+00 0.000000e+00 6.100000e+00
         vertex 1.078156e+01 0.000000e+00 5.845929e+00
         vertex 1.034518e+01 0.000000e+00 7.569155e+00
      endloop
   endfacet
   facet normal 0.000000e+00 -1.000000e+00 0.000000e+00
      outer loop
         vertex 6.612436e+00 0.000000e+00 6.100000e+00
         vertex 1.034518e+01 0.000000e+00 7.569155e+00
         vertex 9.372909e+00 0.000000e+00 9.057321e+00
      endloop
   endfacet
   facet normal 0.000000e+00 -1.000000e+00 0.000000e+00
      outer loop
         vertex 3.646623e+00 0.000000e+00 2.925871e-01
         vertex 5.400000e+00 0.000000e+00 0.000000e+00
         vertex 5.400000e+00 0.000000e+00 4.000000e+00
      endloop
   endfacet
   facet normal 0.000000e+00 -1.000000e+00 0.000000e+00
      outer loop
         vertex 5.400000e+00 0.000000e+00 4.000000e+00
         vertex 5.400000e+00 0.000000e+00 0.000000e+00
         vertex 7.153377e+00 0.000000e+00 2.925871e-01
      endloop
   endfacet
   facet normal 0.000000e+00 -1.000000e+00 0.000000e+00
      outer loop
         vertex 5.400000e+00 0.000000e+00 4.000000e+00
         vertex 7.153377e+00 0.000000e+00 2.925871e-01
         vertex 6.100000e+00 0.000000e+00 4.187565e+00
      endloop
   endfacet
   facet normal 0.000000e+00 -1.000000e+00 0.000000e+00
      outer loop
         vertex 6.100000e+00 0.000000e+00 4.187565e+00
         vertex 7.153377e+00 0.000000e+00 2.925871e-01
         vertex 8.716749e+00 0.000000e+00 1.138641e+00
      endloop
   endfacet
   facet normal 0.000000e+00 -1.000000e+00 0.000000e+00
      outer loop
         vertex 6.100000e+00 0.000000e+00 4.187565e+00
         vertex 8.716749e+00 0.000000e+00 1.138641e+00
         vertex 6.612436e+00 0.000000e+00 4.700000e+00
      endloop
   endfacet
   facet normal 0.000000e+00 -1.000000e+00 0.000000e+00
      outer loop
         vertex 6.612436e+00 0.000000e+00 4.700000e+00
         vertex 8.716749e+00 0.000000e+00 1.138641e+00
         vertex 9.920699e+00 0.000000e+00 2.446480e+00
      endloop
   endfacet
   facet normal 0.000000e+00 -1.000000e+00 0.000000e+00
      outer loop
         vertex 6.612436e+00 0.000000e+00 4.700000e+00
         vertex 9.920699e+00 0.000000e+00 2.446480e+00
         vertex 1.063476e+01 0.000000e+00 4.074379e+00
      endloop
   endfacet
   facet normal 8.257938e-02 -1.731298e-18 9.965845e-01
      outer loop
         vertex 6.288811e+00 6.000000e+01 1.072635e+01
         vertex 5.400000e+00 6.000000e+01 1.080000e+01
         vertex 5.400000e+00 0.000000e+00 1.080000e+01
      endloop
   endfacet
   facet normal -8.257938e-02 1.820350e-18 9.965845e-01
      outer loop
         vertex 5.400000e+00 0.000000e+00 1.080000e+01
         vertex 5.400000e+00 6.000000e+01 1.080000e+01
         vertex 4.511189e+00 0.000000e+00 1.072635e+01
      endloop
   endfacet
   facet normal -8.257938e-02 0.000000e+00 9.965845e-01
      outer loop
         vertex 5.400000e+00 6.000000e+01 1.080000e+01
         vertex 4.511189e+00 6.000000e+01 1.072635e+01
         vertex 4.511189e+00 0.000000e+00 1.072635e+01
      endloop
   endfacet
   facet normal -3.246994e-01 0.000000e+00 9.458172e-01
      outer loop
         vertex 4.511189e+00 0.000000e+00 1.072635e+01
         vertex 4.511189e+00 6.000000e+01 1.072635e+01
         vertex 2.829884e+00 6.000000e+01 1.014916e+01
      endloop
   endfacet
   facet normal -3.246994e-01 0.000000e+00 9.458172e-01
      outer loop
         vertex 4.511189e+00 0.000000e+00 1.072635e+01
         vertex 2.829884e+00 6.000000e+01 1.014916e+01
         vertex 2.829884e+00 0.000000e+00 1.014916e+01
      endloop
   endfacet
   facet normal -6.142128e-01 0.000000e+00 7.891404e-01
      outer loop
         vertex 2.829884e+00 0.000000e+00 1.014916e+01
         vertex 2.829884e+00 6.000000e+01 1.014916e+01
         vertex 1.427091e+00 6.000000e+01 9.057321e+00
      endloop
   endfacet
   facet normal -6.142128e-01 0.000000e+00 7.891404e-01
      outer loop
         vertex 2.829884e+00 0.000000e+00 1.014916e+01
         vertex 1.427091e+00 6.000000e+01 9.057321e+00
         vertex 1.427091e+00 0.000000e+00 9.057321e+00
      endloop
   endfacet
   facet normal -8.371664e-01 0.000000e+00 5.469483e-01
      outer loop
         vertex 1.427091e+00 0.000000e+00 9.057321e+00
         vertex 1.427091e+00 6.000000e+01 9.057321e+00
         vertex 4.548240e-01 6.000000e+01 7.569155e+00
      endloop
   endfacet
   facet normal -8.371664e-01 0.000000e+00 5.469483e-01
      outer loop
         vertex 1.427091e+00 0.000000e+00 9.057321e+00
         vertex 4.548240e-01 6.000000e+01 7.569155e+00
         vertex 4.548240e-01 0.000000e+00 7.569155e+00
      endloop
   endfacet
   facet normal -9.694003e-01 0.000000e+00 2.454854e-01
      outer loop
         vertex 4.548240e-01 0.000000e+00 7.569155e+00
         vertex 4.548240e-01 6.000000e+01 7.569155e+00
         vertex 1.844391e-02 6.000000e+01 5.845929e+00
      endloop
   endfacet
   facet normal -9.694003e-01 0.000000e+00 2.454854e-01
      outer loop
         vertex 4.548240e-01 0.000000e+00 7.569155e+00
         vertex 1.844391e-02 6.000000e+01 5.845929e+00
         vertex 1.844391e-02 0.000000e+00 5.845929e+00
      endloop
   endfacet
   facet normal -9.965845e-01 0.000000e+00 -8.257922e-02
      outer loop
         vertex 1.844391e-02 0.000000e+00 5.845929e+00
         vertex 1.844391e-02 6.000000e+01 5.845929e+00
         vertex 1.652385e-01 6.000000e+01 4.074379e+00
      endloop
   endfacet
   facet normal -9.965845e-01 0.000000e+00 -8.257922e-02
      outer loop
         vertex 1.844391e-02 0.000000e+00 5.845929e+00
         vertex 1.652385e-01 6.000000e+01 4.074379e+00
         vertex 1.652385e-01 0.000000e+00 4.074379e+00
      endloop
   endfacet
   facet normal -9.157733e-01 0.000000e+00 -4.016955e-01
      outer loop
         vertex 1.652385e-01 0.000000e+00 4.074379e+00
         vertex 1.652385e-01 6.000000e+01 4.074379e+00
         vertex 8.793012e-01 6.000000e+01 2.446480e+00
      endloop
   endfacet
   facet normal -9.157733e-01 0.000000e+00 -4.016955e-01
      outer loop
         vertex 1.652385e-01 0.000000e+00 4.074379e+00
         vertex 8.793012e-01 6.000000e+01 2.446480e+00
         vertex 8.793012e-01 0.000000e+00 2.446480e+00
      endloop
   endfacet
   facet normal -7.357239e-01 0.000000e+00 -6.772816e-01
      outer loop
         vertex 8.793012e-01 0.000000e+00 2.446480e+00
         vertex 8.793012e-01 6.000000e+01 2.446480e+00
         vertex 2.083251e+00 6.000000e+01 1.138641e+00
      endloop
   endfacet
   facet normal -7.357239e-01 0.000000e+00 -6.772816e-01
      outer loop
         vertex 8.793012e-01 0.000000e+00 2.446480e+00
         vertex 2.083251e+00 6.000000e+01 1.138641e+00
         vertex 2.083251e+00 0.000000e+00 1.138641e+00
      endloop
   endfacet
   facet normal -4.759474e-01 0.000000e+00 -8.794737e-01
      outer loop
         vertex 2.083251e+00 0.000000e+00 1.138641e+00
         vertex 2.083251e+00 6.000000e+01 1.138641e+00
         vertex 3.646623e+00 6.000000e+01 2.925871e-01
      endloop
   endfacet
   facet normal -4.759474e-01 0.000000e+00 -8.794737e-01
      outer loop
         vertex 2.083251e+00 0.000000e+00 1.138641e+00
         vertex 3.646623e+00 6.000000e+01 2.925871e-01
         vertex 3.646623e+00 0.000000e+00 2.925871e-01
      endloop
   endfacet
   facet normal -1.645947e-01 0.000000e+00 -9.863613e-01
      outer loop
         vertex 3.646623e+00 0.000000e+00 2.925871e-01
         vertex 3.646623e+00 6.000000e+01 2.925871e-01
         vertex 5.400000e+00 6.000000e+01 0.000000e+00
      endloop
   endfacet
   facet normal -1.645947e-01 0.000000e+00 -9.863613e-01
      outer loop
         vertex 3.646623e+00 0.000000e+00 2.925871e-01
         vertex 5.400000e+00 6.000000e+01 0.000000e+00
         vertex 5.400000e+00 0.000000e+00 0.000000e+00
      endloop
   endfacet
   facet normal 1.645947e-01 0.000000e+00 -9.863613e-01
      outer loop
         vertex 5.400000e+00 0.000000e+00 0.000000e+00
         vertex 5.400000e+00 6.000000e+01 0.000000e+00
         vertex 7.153377e+00 6.000000e+01 2.925871e-01
      endloop
   endfacet
   facet normal 1.645947e-01 0.000000e+00 -9.863613e-01
      outer loop
         vertex 5.400000e+00 0.000000e+00 0.000000e+00
         vertex 7.153377e+00 6.000000e+01 2.925871e-01
         vertex 7.153377e+00 0.000000e+00 2.925871e-01
      endloop
   endfacet
   facet normal 4.759474e-01 0.000000e+00 -8.794737e-01
      outer loop
         vertex 7.153377e+00 0.000000e+00 2.925871e-01
         vertex 7.153377e+00 6.000000e+01 2.925871e-01
         vertex 8.716749e+00 6.000000e+01 1.138641e+00
      endloop
   endfacet
   facet normal 4.759474e-01 0.000000e+00 -8.794737e-01
      outer loop
         vertex 7.153377e+00 0.000000e+00 2.925871e-01
         vertex 8.716749e+00 6.000000e+01 1.138641e+00
         vertex 8.716749e+00 0.000000e+00 1.138641e+00
      endloop
   endfacet
   facet normal 7.357239e-01 0.000000e+00 -6.772816e-01
      outer loop
         vertex 8.716749e+00 0.000000e+00 1.138641e+00
         vertex 8.716749e+00 6.000000e+01 1.138641e+00
         vertex 9.920699e+00 6.000000e+01 2.446480e+00
      endloop
   endfacet
   facet normal 7.357239e-01 0.000000e+00 -6.772816e-01
      outer loop
         vertex 8.716749e+00 0.000000e+00 1.138641e+00
         vertex 9.920699e+00 6.000000e+01 2.446480e+00
         vertex 9.920699e+00 0.000000e+00 2.446480e+00
      endloop
   endfacet
   facet normal 9.157733e-01 0.000000e+00 -4.016955e-01
      outer loop
         vertex 9.920699e+00 0.000000e+00 2.446480e+00
         vertex 9.920699e+00 6.000000e+01 2.446480e+00
         vertex 1.063476e+01 6.000000e+01 4.074379e+00
      endloop
   endfacet
   facet normal 9.157733e-01 0.000000e+00 -4.016955e-01
      outer loop
         vertex 9.920699e+00 0.000000e+00 2.446480e+00
         vertex 1.063476e+01 6.000000e+01 4.074379e+00
         vertex 1.063476e+01 0.000000e+00 4.074379e+00
      endloop
   endfacet
   facet normal 9.965845e-01 0.000000e+00 -8.257922e-02
      outer loop
         vertex 1.063476e+01 0.000000e+00 4.074379e+00
         vertex 1.063476e+01 6.000000e+01 4.074379e+00
         vertex 1.078156e+01 6.000000e+01 5.845929e+00
      endloop
   endfacet
   facet normal 9.965845e-01 0.000000e+00 -8.257922e-02
      outer loop
         vertex 1.063476e+01 0.000000e+00 4.074379e+00
         vertex 1.078156e+01 6.000000e+01 5.845929e+00
         vertex 1.078156e+01 0.000000e+00 5.845929e+00
      endloop
   endfacet
   facet normal 9.694003e-01 -0.000000e+00 2.454854e-01
      outer loop
         vertex 1.078156e+01 0.000000e+00 5.845929e+00
         vertex 1.078156e+01 6.000000e+01 5.845929e+00
         vertex 1.034518e+01 6.000000e+01 7.569155e+00
      endloop
   endfacet
   facet normal 9.694003e-01 0.000000e+00 2.454854e-01
      outer loop
         vertex 1.078156e+01 0.000000e+00 5.845929e+00
         vertex 1.034518e+01 6.000000e+01 7.569155e+00
         vertex 1.034518e+01 0.000000e+00 7.569155e+00
      endloop
   endfacet
   facet normal 8.371664e-01 -0.000000e+00 5.469483e-01
      outer loop
         vertex 1.034518e+01 0.000000e+00 7.569155e+00
         vertex 1.034518e+01 6.000000e+01 7.569155e+00
         vertex 9.372909e+00 6.000000e+01 9.057321e+00
      endloop
   endfacet
   facet normal 8.371664e-01 0.000000e+00 5.469483e-01
      outer loop
         vertex 1.034518e+01 0.000000e+00 7.569155e+00
         vertex 9.372909e+00 6.000000e+01 9.057321e+00
         vertex 9.372909e+00 0.000000e+00 9.057321e+00
      endloop
   endfacet
   facet normal 6.142128e-01 -0.000000e+00 7.891404e-01
      outer loop
         vertex 9.372909e+00 0.000000e+00 9.057321e+00
         vertex 9.372909e+00 6.000000e+01 9.057321e+00
         vertex 7.970116e+00 6.000000e+01 1.014916e+01
      endloop
   endfacet
   facet normal 6.142128e-01 0.000000e+00 7.891404e-01
      outer loop
         vertex 9.372909e+00 0.000000e+00 9.057321e+00
         vertex 7.970116e+00 6.000000e+01 1.014916e+01
         vertex 7.970116e+00 0.000000e+00 1.014916e+01
      endloop
   endfacet
   facet normal 3.246994e-01 -0.000000e+00 9.458172e-01
      outer loop
         vertex 7.970116e+00 0.000000e+00 1.014916e+01
         vertex 7.970116e+00 6.000000e+01 1.014916e+01
         vertex 6.288811e+00 6.000000e+01 1.072635e+01
      endloop
   endfacet
   facet normal 3.246994e-01 0.000000e+00 9.458172e-01
      outer loop
         vertex 7.970116e+00 0.000000e+00 1.014916e+01
         vertex 6.288811e+00 6.000000e+01 1.072635e+01
         vertex 6.288811e+00 0.000000e+00 1.072635e+01
      endloop
   endfacet
   facet normal 8.257938e-02 -0.000000e+00 9.965845e-01
      outer loop
         vertex 6.288811e+00 0.000000e+00 1.072635e+01
         vertex 6.288811e+00 6.000000e+01 1.072635e+01
         vertex 5.400000e+00 0.000000e+00 1.080000e+01
      endloop
   endfacet
   facet normal -2.588190e-01 0.000000e+00 9.659258e-01
      outer loop
         vertex 5.400000e+00 6.000000e+01 4.000000e+00
         vertex 5.400000e+00 0.000000e+00 4.000000e+00
         vertex 6.100000e+00 6.000000e+01 4.187565e+00
      endloop
   endfacet
   facet normal -2.588190e-01 0.000000e+00 9.659258e-01
      outer loop
         vertex 6.100000e+00 6.000000e+01 4.187565e+00
         vertex 5.400000e+00 0.000000e+00 4.000000e+00
         vertex 6.100000e+00 0.000000e+00 4.187565e+00
      endloop
   endfacet
   facet normal -7.071068e-01 0.000000e+00 7.071068e-01
      outer loop
         vertex 6.100000e+00 6.000000e+01 4.187565e+00
         vertex 6.100000e+00 0.000000e+00 4.187565e+00
         vertex 6.612436e+00 6.000000e+01 4.700000e+00
      endloop
   endfacet
   facet normal -7.071068e-01 0.000000e+00 7.071068e-01
      outer loop
         vertex 6.612436e+00 6.000000e+01 4.700000e+00
         vertex 6.100000e+00 0.000000e+00 4.187565e+00
         vertex 6.612436e+00 0.000000e+00 4.700000e+00
      endloop
   endfacet
   facet normal -9.659258e-01 0.000000e+00 2.588190e-01
      outer loop
         vertex 6.612436e+00 6.000000e+01 4.700000e+00
         vertex 6.612436e+00 0.000000e+00 4.700000e+00
         vertex 6.800000e+00 6.000000e+01 5.400000e+00
      endloop
   endfacet
   facet normal -9.659258e-01 0.000000e+00 2.588190e-01
      outer loop
         vertex 6.800000e+00 6.000000e+01 5.400000e+00
         vertex 6.612436e+00 0.000000e+00 4.700000e+00
         vertex 6.800000e+00 0.000000e+00 5.400000e+00
      endloop
   endfacet
   facet normal -9.659258e-01 -0.000000e+00 -2.588190e-01
      outer loop
         vertex 6.800000e+00 6.000000e+01 5.400000e+00
         vertex 6.800000e+00 0.000000e+00 5.400000e+00
         vertex 6.612436e+00 6.000000e+01 6.100000e+00
      endloop
   endfacet
   facet normal -9.659258e-01 -0.000000e+00 -2.588190e-01
      outer loop
         vertex 6.612436e+00 6.000000e+01 6.100000e+00
         vertex 6.800000e+00 0.000000e+00 5.400000e+00
         vertex 6.612436e+00 0.000000e+00 6.100000e+00
      endloop
   endfacet
   facet normal -7.071068e-01 -0.000000e+00 -7.071068e-01
      outer loop
         vertex 6.612436e+00 6.000000e+01 6.100000e+00
         vertex 6.612436e+00 0.000000e+00 6.100000e+00
         vertex 6.100000e+00 6.000000e+01 6.612436e+00
      endloop
   endfacet
   facet normal -7.071068e-01 -0.000000e+00 -7.071068e-01
      outer loop
         vertex 6.100000e+00 6.000000e+01 6.612436e+00
         vertex 6.612436e+00 0.000000e+00 6.100000e+00
         vertex 6.100000e+00 0.000000e+00 6.612436e+00
      endloop
   endfacet
   facet normal -2.588190e-01 -0.000000e+00 -9.659258e-01
      outer loop
         vertex 6.100000e+00 6.000000e+01 6.612436e+00
         vertex 6.100000e+00 0.000000e+00 6.612436e+00
         vertex 5.400000e+00 6.000000e+01 6.800000e+00
      endloop
   endfacet
   facet normal -2.588190e-01 -0.000000e+00 -9.659258e-01
      outer loop
         vertex 5.400000e+00 6.000000e+01 6.800000e+00
         vertex 6.100000e+00 0.000000e+00 6.612436e+00
         vertex 5.400000e+00 0.000000e+00 6.800000e+00
      endloop
   endfacet
   facet normal 2.588190e-01 0.000000e+00 -9.659258e-01
      outer loop
         vertex 5.400000e+00 6.000000e+01 6.800000e+00
         vertex 5.400000e+00 0.000000e+00 6.800000e+00
         vertex 4.700000e+00 6.000000e+01 6.612436e+00
      endloop
   endfacet
   facet normal 2.588190e-01 0.000000e+00 -9.659258e-01
      outer loop
         vertex 4.700000e+00 6.000000e+01 6.612436e+00
         vertex 5.400000e+00 0.000000e+00 6.800000e+00
         vertex 4.700000e+00 0.000000e+00 6.612436e+00
      endloop
   endfacet
   facet normal 7.071068e-01 0.000000e+00 -7.071068e-01
      outer loop
         vertex 4.700000e+00 6.000000e+01 6.612436e+00
         vertex 4.700000e+00 0.000000e+00 6.612436e+00
         vertex 4.187565e+00 6.000000e+01 6.100000e+00
      endloop
   endfacet
   facet normal 7.071068e-01 0.000000e+00 -7.071068e-01
      outer loop
         vertex 4.187565e+00 6.000000e+01 6.100000e+00
         vertex 4.700000e+00 0.000000e+00 6.612436e+00
         vertex 4.187565e+00 0.000000e+00 6.100000e+00
      endloop
   endfacet
   facet normal 9.659258e-01 0.000000e+00 -2.588190e-01
      outer loop
         vertex 4.187565e+00 6.000000e+01 6.100000e+00
         vertex 4.187565e+00 0.000000e+00 6.100000e+00
         vertex 4.000000e+00 6.000000e+01 5.400000e+00
      endloop
   endfacet
   facet normal 9.659258e-01 0.000000e+00 -2.588190e-01
      outer loop
         vertex 4.000000e+00 6.000000e+01 5.400000e+00
         vertex 4.187565e+00 0.000000e+00 6.100000e+00
         vertex 4.000000e+00 0.000000e+00 5.400000e+00
      endloop
   endfacet
   facet normal 9.659258e-01 0.000000e+00 2.588190e-01
      outer loop
         vertex 4.000000e+00 6.000000e+01 5.400000e+00
         vertex 4.000000e+00 0.000000e+00 5.400000e+00
         vertex 4.187565e+00 6.000000e+01 4.700000e+00
      endloop
   endfacet
   facet normal 9.659258e-01 0.000000e+00 2.588190e-01
      outer loop
         vertex 4.187565e+00 6.000000e+01 4.700000e+00
         vertex 4.000000e+00 0.000000e+00 5.400000e+00
         vertex 4.187565e+00 0.000000e+00 4.700000e+00
      endloop
   endfacet
   facet normal 7.071068e-01 0.000000e+00 7.071068e-01
      outer loop
         vertex 4.187565e+00 6.000000e+01 4.700000e+00
         vertex 4.187565e+00 0.000000e+00 4.700000e+00
         vertex 4.700000e+00 6.000000e+01 4.187565e+00
      endloop
   endfacet
   facet normal 7.071068e-01 0.000000e+00 7.071068e-01
      outer loop
         vertex 4.700000e+00 6.000000e+01 4.187565e+00
         vertex 4.187565e+00 0.000000e+00 4.700000e+00
         vertex 4.700000e+00 0.000000e+00 4.187565e+00
      endloop
   endfacet
   facet normal 2.588190e-01 0.000000e+00 9.659258e-01
      outer loop
         vertex 4.700000e+00 6.000000e+01 4.187565e+00
         vertex 4.700000e+00 0.000000e+00 4.187565e+00
         vertex 5.400000e+00 6.000000e+01 4.000000e+00
      endloop
   endfacet
   facet normal 2.588190e-01 0.000000e+00 9.659258e-01
      outer loop
         vertex 5.400000e+00 6.000000e+01 4.000000e+00
         vertex 4.700000e+00 0.000000e+00 4.187565e+00
         vertex 5.400000e+00 0.000000e+00 4.000000e+00
      endloop
   endfacet
endsolid