solid lidarHolder
   facet normal -2.588194e-01 0.000000e+00 -9.659257e-01
      outer loop
         vertex 3.483647e+01 2.800000e+00 1.569358e+01
         vertex 3.483647e+01 1.560000e+01 1.569358e+01
         vertex 3.563647e+01 2.800000e+00 1.547922e+01
      endloop
   endfacet
   facet normal -2.588194e-01 0.000000e+00 -9.659257e-01
      outer loop
         vertex 3.563647e+01 2.800000e+00 1.547922e+01
         vertex 3.483647e+01 1.560000e+01 1.569358e+01
         vertex 3.563647e+01 1.560000e+01 1.547922e+01
      endloop
   endfacet
   facet normal -7.071065e-01 0.000000e+00 -7.071071e-01
      outer loop
         vertex 3.563647e+01 2.800000e+00 1.547922e+01
         vertex 3.563647e+01 1.560000e+01 1.547922e+01
         vertex 3.622211e+01 2.800000e+00 1.489358e+01
      endloop
   endfacet
   facet normal -7.071065e-01 0.000000e+00 -7.071071e-01
      outer loop
         vertex 3.622211e+01 2.800000e+00 1.489358e+01
         vertex 3.563647e+01 1.560000e+01 1.547922e+01
         vertex 3.622211e+01 1.560000e+01 1.489358e+01
      endloop
   endfacet
   facet normal -9.659258e-01 0.000000e+00 -2.588193e-01
      outer loop
         vertex 3.622211e+01 2.800000e+00 1.489358e+01
         vertex 3.622211e+01 1.560000e+01 1.489358e+01
         vertex 3.643647e+01 2.800000e+00 1.409358e+01
      endloop
   endfacet
   facet normal -9.659258e-01 0.000000e+00 -2.588193e-01
      outer loop
         vertex 3.643647e+01 2.800000e+00 1.409358e+01
         vertex 3.622211e+01 1.560000e+01 1.489358e+01
         vertex 3.643647e+01 1.560000e+01 1.409358e+01
      endloop
   endfacet
   facet normal -9.659257e-01 0.000000e+00 2.588196e-01
      outer loop
         vertex 3.643647e+01 2.800000e+00 1.409358e+01
         vertex 3.643647e+01 1.560000e+01 1.409358e+01
         vertex 3.622211e+01 2.800000e+00 1.329358e+01
      endloop
   endfacet
   facet normal -9.659257e-01 0.000000e+00 2.588196e-01
      outer loop
         vertex 3.622211e+01 2.800000e+00 1.329358e+01
         vertex 3.643647e+01 1.560000e+01 1.409358e+01
         vertex 3.622211e+01 1.560000e+01 1.329358e+01
      endloop
   endfacet
   facet normal -7.071071e-01 0.000000e+00 7.071065e-01
      outer loop
         vertex 3.622211e+01 2.800000e+00 1.329358e+01
         vertex 3.622211e+01 1.560000e+01 1.329358e+01
         vertex 3.563647e+01 2.800000e+00 1.270794e+01
      endloop
   endfacet
   facet normal -7.071071e-01 0.000000e+00 7.071065e-01
      outer loop
         vertex 3.563647e+01 2.800000e+00 1.270794e+01
         vertex 3.622211e+01 1.560000e+01 1.329358e+01
         vertex 3.563647e+01 1.560000e+01 1.270794e+01
      endloop
   endfacet
   facet normal -2.588194e-01 0.000000e+00 9.659257e-01
      outer loop
         vertex 3.563647e+01 2.800000e+00 1.270794e+01
         vertex 3.563647e+01 1.560000e+01 1.270794e+01
         vertex 3.483647e+01 2.800000e+00 1.249358e+01
      endloop
   endfacet
   facet normal -2.588194e-01 0.000000e+00 9.659257e-01
      outer loop
         vertex 3.483647e+01 2.800000e+00 1.249358e+01
         vertex 3.563647e+01 1.560000e+01 1.270794e+01
         vertex 3.483647e+01 1.560000e+01 1.249358e+01
      endloop
   endfacet
   facet normal 2.588194e-01 -0.000000e+00 9.659257e-01
      outer loop
         vertex 3.483647e+01 2.800000e+00 1.249358e+01
         vertex 3.483647e+01 1.560000e+01 1.249358e+01
         vertex 3.403647e+01 2.800000e+00 1.270794e+01
      endloop
   endfacet
   facet normal 2.588194e-01 -0.000000e+00 9.659257e-01
      outer loop
         vertex 3.403647e+01 2.800000e+00 1.270794e+01
         vertex 3.483647e+01 1.560000e+01 1.249358e+01
         vertex 3.403647e+01 1.560000e+01 1.270794e+01
      endloop
   endfacet
   facet normal 7.071068e-01 -0.000000e+00 7.071068e-01
      outer loop
         vertex 3.403647e+01 2.800000e+00 1.270794e+01
         vertex 3.403647e+01 1.560000e+01 1.270794e+01
         vertex 3.345083e+01 2.800000e+00 1.329358e+01
      endloop
   endfacet
   facet normal 7.071068e-01 -0.000000e+00 7.071068e-01
      outer loop
         vertex 3.345083e+01 2.800000e+00 1.329358e+01
         vertex 3.403647e+01 1.560000e+01 1.270794e+01
         vertex 3.345083e+01 1.560000e+01 1.329358e+01
      endloop
   endfacet
   facet normal 9.659258e-01 -0.000000e+00 2.588191e-01
      outer loop
         vertex 3.345083e+01 2.800000e+00 1.329358e+01
         vertex 3.345083e+01 1.560000e+01 1.329358e+01
         vertex 3.323647e+01 2.800000e+00 1.409358e+01
      endloop
   endfacet
   facet normal 9.659258e-01 -0.000000e+00 2.588191e-01
      outer loop
         vertex 3.323647e+01 2.800000e+00 1.409358e+01
         vertex 3.345083e+01 1.560000e+01 1.329358e+01
         vertex 3.323647e+01 1.560000e+01 1.409358e+01
      endloop
   endfacet
   facet normal 9.659259e-01 0.000000e+00 -2.588188e-01
      outer loop
         vertex 3.323647e+01 2.800000e+00 1.409358e+01
         vertex 3.323647e+01 1.560000e+01 1.409358e+01
         vertex 3.345083e+01 2.800000e+00 1.489358e+01
      endloop
   endfacet
   facet normal 9.659259e-01 0.000000e+00 -2.588188e-01
      outer loop
         vertex 3.345083e+01 2.800000e+00 1.489358e+01
         vertex 3.323647e+01 1.560000e+01 1.409358e+01
         vertex 3.345083e+01 1.560000e+01 1.489358e+01
      endloop
   endfacet
   facet normal 7.071062e-01 0.000000e+00 -7.071073e-01
      outer loop
         vertex 3.345083e+01 2.800000e+00 1.489358e+01
         vertex 3.345083e+01 1.560000e+01 1.489358e+01
         vertex 3.403647e+01 2.800000e+00 1.547922e+01
      endloop
   endfacet
   facet normal 7.071062e-01 0.000000e+00 -7.071073e-01
      outer loop
         vertex 3.403647e+01 2.800000e+00 1.547922e+01
         vertex 3.345083e+01 1.560000e+01 1.489358e+01
         vertex 3.403647e+01 1.560000e+01 1.547922e+01
      endloop
   endfacet
   facet normal 2.588194e-01 0.000000e+00 -9.659257e-01
      outer loop
         vertex 3.403647e+01 2.800000e+00 1.547922e+01
         vertex 3.403647e+01 1.560000e+01 1.547922e+01
         vertex 3.483647e+01 2.800000e+00 1.569358e+01
      endloop
   endfacet
   facet normal 2.588194e-01 0.000000e+00 -9.659257e-01
      outer loop
         vertex 3.483647e+01 2.800000e+00 1.569358e+01
         vertex 3.403647e+01 1.560000e+01 1.547922e+01
         vertex 3.483647e+01 1.560000e+01 1.569358e+01
      endloop
   endfacet
   facet normal 0.000000e+00 -1.000000e+00 -0.000000e+00
      outer loop
         vertex 4.370000e+01 2.800000e+00 2.670096e+01
         vertex 4.295000e+01 2.800000e+00 2.650000e+01
         vertex 4.600000e+01 2.800000e+00 0.000000e+00
      endloop
   endfacet
   facet normal 0.000000e+00 -1.000000e+00 0.000000e+00
      outer loop
         vertex 4.295000e+01 2.800000e+00 2.950000e+01
         vertex 4.370000e+01 2.800000e+00 2.929904e+01
         vertex 4.600000e+01 2.800000e+00 3.600000e+01
      endloop
   endfacet
   facet normal 0.000000e+00 -1.000000e+00 0.000000e+00
      outer loop
         vertex 3.345083e+01 2.800000e+00 1.489358e+01
         vertex 3.403647e+01 2.800000e+00 1.547922e+01
         vertex 2.800000e+01 2.800000e+00 2.000000e+01
      endloop
   endfacet
   facet normal -0.000000e+00 -1.000000e+00 0.000000e+00
      outer loop
         vertex 1.230000e+01 2.800000e+00 2.670096e+01
         vertex 1.175096e+01 2.800000e+00 2.725000e+01
         vertex 0.000000e+00 2.800000e+00 2.000000e+01
      endloop
   endfacet
   facet normal -0.000000e+00 -1.000000e+00 0.000000e+00
      outer loop
         vertex 2.675001e+00 2.800000e+00 2.683087e+01
         vertex 2.180867e+00 2.800000e+00 2.732500e+01
         vertex 0.000000e+00 2.800000e+00 2.000000e+01
      endloop
   endfacet
   facet normal 0.000000e+00 -1.000000e+00 0.000000e+00
      outer loop
         vertex 0.000000e+00 2.800000e+00 2.000000e+01
         vertex 2.180867e+00 2.800000e+00 2.732500e+01
         vertex 2.000000e+00 2.800000e+00 2.800000e+01
      endloop
   endfacet
   facet normal 0.000000e+00 -1.000000e+00 0.000000e+00
      outer loop
         vertex 0.000000e+00 2.800000e+00 2.000000e+01
         vertex 2.000000e+00 2.800000e+00 2.800000e+01
         vertex 0.000000e+00 2.800000e+00 3.600000e+01
      endloop
   endfacet
   facet normal 0.000000e+00 -1.000000e+00 0.000000e+00
      outer loop
         vertex 0.000000e+00 2.800000e+00 3.600000e+01
         vertex 2.000000e+00 2.800000e+00 2.800000e+01
         vertex 2.180867e+00 2.800000e+00 2.867500e+01
      endloop
   endfacet
   facet normal 0.000000e+00 -1.000000e+00 0.000000e+00
      outer loop
         vertex 0.000000e+00 2.800000e+00 3.600000e+01
         vertex 2.180867e+00 2.800000e+00 2.867500e+01
         vertex 2.675001e+00 2.800000e+00 2.916914e+01
      endloop
   endfacet
   facet normal 0.000000e+00 -1.000000e+00 0.000000e+00
      outer loop
         vertex 4.295000e+01 2.800000e+00 2.950000e+01
         vertex 4.600000e+01 2.800000e+00 3.600000e+01
         vertex 1.305000e+01 2.800000e+00 2.950000e+01
      endloop
   endfacet
   facet normal 0.000000e+00 -1.000000e+00 0.000000e+00
      outer loop
         vertex 1.305000e+01 2.800000e+00 2.950000e+01
         vertex 4.600000e+01 2.800000e+00 3.600000e+01
         vertex 0.000000e+00 2.800000e+00 3.600000e+01
      endloop
   endfacet
   facet normal -0.000000e+00 -1.000000e+00 0.000000e+00
      outer loop
         vertex 1.305000e+01 2.800000e+00 2.950000e+01
         vertex 0.000000e+00 2.800000e+00 3.600000e+01
         vertex 1.230000e+01 2.800000e+00 2.929904e+01
      endloop
   endfacet
   facet normal 0.000000e+00 -1.000000e+00 0.000000e+00
      outer loop
         vertex 4.370000e+01 2.800000e+00 2.929904e+01
         vertex 4.424904e+01 2.800000e+00 2.875000e+01
         vertex 4.600000e+01 2.800000e+00 3.600000e+01
      endloop
   endfacet
   facet normal 0.000000e+00 -1.000000e+00 0.000000e+00
      outer loop
         vertex 4.600000e+01 2.800000e+00 3.600000e+01
         vertex 4.424904e+01 2.800000e+00 2.875000e+01
         vertex 4.445000e+01 2.800000e+00 2.800000e+01
      endloop
   endfacet
   facet normal 0.000000e+00 -1.000000e+00 -0.000000e+00
      outer loop
         vertex 4.600000e+01 2.800000e+00 3.600000e+01
         vertex 4.445000e+01 2.800000e+00 2.800000e+01
         vertex 4.600000e+01 2.800000e+00 0.000000e+00
      endloop
   endfacet
   facet normal 0.000000e+00 -1.000000e+00 0.000000e+00
      outer loop
         vertex 4.600000e+01 2.800000e+00 0.000000e+00
         vertex 4.445000e+01 2.800000e+00 2.800000e+01
         vertex 4.424904e+01 2.800000e+00 2.725000e+01
      endloop
   endfacet
   facet normal 0.000000e+00 -1.000000e+00 0.000000e+00
      outer loop
         vertex 4.600000e+01 2.800000e+00 0.000000e+00
         vertex 4.424904e+01 2.800000e+00 2.725000e+01
         vertex 4.370000e+01 2.800000e+00 2.670096e+01
      endloop
   endfacet
   facet normal -0.000000e+00 -1.000000e+00 0.000000e+00
      outer loop
         vertex 3.483647e+01 2.800000e+00 5.850000e+00
         vertex 3.563647e+01 2.800000e+00 1.270794e+01
         vertex 3.416147e+01 2.800000e+00 5.669136e+00
      endloop
   endfacet
   facet normal 0.000000e+00 -1.000000e+00 0.000000e+00
      outer loop
         vertex 3.416147e+01 2.800000e+00 5.669136e+00
         vertex 3.563647e+01 2.800000e+00 1.270794e+01
         vertex 3.483647e+01 2.800000e+00 1.249358e+01
      endloop
   endfacet
   facet normal -0.000000e+00 -1.000000e+00 0.000000e+00
      outer loop
         vertex 3.416147e+01 2.800000e+00 5.669136e+00
         vertex 3.483647e+01 2.800000e+00 1.249358e+01
         vertex 3.366734e+01 2.800000e+00 5.175000e+00
      endloop
   endfacet
   facet normal 0.000000e+00 -1.000000e+00 0.000000e+00
      outer loop
         vertex 2.800000e+01 2.800000e+00 0.000000e+00
         vertex 3.366734e+01 2.800000e+00 3.825001e+00
         vertex 3.348647e+01 2.800000e+00 4.500002e+00
      endloop
   endfacet
   facet normal 0.000000e+00 -1.000000e+00 0.000000e+00
      outer loop
         vertex 4.600000e+01 2.800000e+00 0.000000e+00
         vertex 3.618647e+01 2.800000e+00 4.500002e+00
         vertex 3.600561e+01 2.800000e+00 3.825001e+00
      endloop
   endfacet
   facet normal 0.000000e+00 -1.000000e+00 0.000000e+00
      outer loop
         vertex 2.675001e+00 2.800000e+00 2.916914e+01
         vertex 3.350001e+00 2.800000e+00 2.935000e+01
         vertex 0.000000e+00 2.800000e+00 3.600000e+01
      endloop
   endfacet
   facet normal 0.000000e+00 -1.000000e+00 0.000000e+00
      outer loop
         vertex 0.000000e+00 2.800000e+00 3.600000e+01
         vertex 3.350001e+00 2.800000e+00 2.935000e+01
         vertex 4.025001e+00 2.800000e+00 2.916914e+01
      endloop
   endfacet
   facet normal 0.000000e+00 -1.000000e+00 0.000000e+00
      outer loop
         vertex 0.000000e+00 2.800000e+00 3.600000e+01
         vertex 4.025001e+00 2.800000e+00 2.916914e+01
         vertex 1.230000e+01 2.800000e+00 2.929904e+01
      endloop
   endfacet
   facet normal 0.000000e+00 -1.000000e+00 0.000000e+00
      outer loop
         vertex 1.230000e+01 2.800000e+00 2.929904e+01
         vertex 4.025001e+00 2.800000e+00 2.916914e+01
         vertex 4.519135e+00 2.800000e+00 2.867500e+01
      endloop
   endfacet
   facet normal 0.000000e+00 -1.000000e+00 0.000000e+00
      outer loop
         vertex 1.230000e+01 2.800000e+00 2.929904e+01
         vertex 4.519135e+00 2.800000e+00 2.867500e+01
         vertex 1.175096e+01 2.800000e+00 2.875000e+01
      endloop
   endfacet
   facet normal 0.000000e+00 -1.000000e+00 0.000000e+00
      outer loop
         vertex 1.175096e+01 2.800000e+00 2.725000e+01
         vertex 4.025001e+00 2.800000e+00 2.683087e+01
         vertex 0.000000e+00 2.800000e+00 2.000000e+01
      endloop
   endfacet
   facet normal 0.000000e+00 -1.000000e+00 0.000000e+00
      outer loop
         vertex 0.000000e+00 2.800000e+00 2.000000e+01
         vertex 4.025001e+00 2.800000e+00 2.683087e+01
         vertex 3.350001e+00 2.800000e+00 2.665000e+01
      endloop
   endfacet
   facet normal 0.000000e+00 -1.000000e+00 0.000000e+00
      outer loop
         vertex 0.000000e+00 2.800000e+00 2.000000e+01
         vertex 3.350001e+00 2.800000e+00 2.665000e+01
         vertex 2.675001e+00 2.800000e+00 2.683087e+01
      endloop
   endfacet
   facet normal 0.000000e+00 -1.000000e+00 -0.000000e+00
      outer loop
         vertex 1.230000e+01 2.800000e+00 2.670096e+01
         vertex 0.000000e+00 2.800000e+00 2.000000e+01
         vertex 1.305000e+01 2.800000e+00 2.650000e+01
      endloop
   endfacet
   facet normal 0.000000e+00 -1.000000e+00 -0.000000e+00
      outer loop
         vertex 1.305000e+01 2.800000e+00 2.650000e+01
         vertex 0.000000e+00 2.800000e+00 2.000000e+01
         vertex 2.800000e+01 2.800000e+00 2.000000e+01
      endloop
   endfacet
   facet normal 0.000000e+00 -1.000000e+00 0.000000e+00
      outer loop
         vertex 1.305000e+01 2.800000e+00 2.650000e+01
         vertex 2.800000e+01 2.800000e+00 2.000000e+01
         vertex 4.295000e+01 2.800000e+00 2.650000e+01
      endloop
   endfacet
   facet normal 0.000000e+00 -1.000000e+00 0.000000e+00
      outer loop
         vertex 4.295000e+01 2.800000e+00 2.650000e+01
         vertex 2.800000e+01 2.800000e+00 2.000000e+01
         vertex 3.403647e+01 2.800000e+00 1.547922e+01
      endloop
   endfacet
   facet normal 0.000000e+00 -1.000000e+00 0.000000e+00
      outer loop
         vertex 4.295000e+01 2.800000e+00 2.650000e+01
         vertex 3.403647e+01 2.800000e+00 1.547922e+01
         vertex 3.483647e+01 2.800000e+00 1.569358e+01
      endloop
   endfacet
   facet normal 0.000000e+00 -1.000000e+00 0.000000e+00
      outer loop
         vertex 3.483647e+01 2.800000e+00 1.569358e+01
         vertex 3.563647e+01 2.800000e+00 1.547922e+01
         vertex 4.295000e+01 2.800000e+00 2.650000e+01
      endloop
   endfacet
   facet normal 0.000000e+00 -1.000000e+00 0.000000e+00
      outer loop
         vertex 4.295000e+01 2.800000e+00 2.650000e+01
         vertex 3.563647e+01 2.800000e+00 1.547922e+01
         vertex 3.622211e+01 2.800000e+00 1.489358e+01
      endloop
   endfacet
   facet normal 0.000000e+00 -1.000000e+00 0.000000e+00
      outer loop
         vertex 4.295000e+01 2.800000e+00 2.650000e+01
         vertex 3.622211e+01 2.800000e+00 1.489358e+01
         vertex 3.643647e+01 2.800000e+00 1.409358e+01
      endloop
   endfacet
   facet normal 0.000000e+00 -1.000000e+00 0.000000e+00
      outer loop
         vertex 3.618647e+01 2.800000e+00 4.500002e+00
         vertex 4.600000e+01 2.800000e+00 0.000000e+00
         vertex 3.600561e+01 2.800000e+00 5.175000e+00
      endloop
   endfacet
   facet normal 0.000000e+00 -1.000000e+00 0.000000e+00
      outer loop
         vertex 3.600561e+01 2.800000e+00 5.175000e+00
         vertex 4.600000e+01 2.800000e+00 0.000000e+00
         vertex 4.295000e+01 2.800000e+00 2.650000e+01
      endloop
   endfacet
   facet normal 0.000000e+00 -1.000000e+00 0.000000e+00
      outer loop
         vertex 3.600561e+01 2.800000e+00 5.175000e+00
         vertex 4.295000e+01 2.800000e+00 2.650000e+01
         vertex 3.551147e+01 2.800000e+00 5.669136e+00
      endloop
   endfacet
   facet normal 0.000000e+00 -1.000000e+00 0.000000e+00
      outer loop
         vertex 3.551147e+01 2.800000e+00 5.669136e+00
         vertex 4.295000e+01 2.800000e+00 2.650000e+01
         vertex 3.643647e+01 2.800000e+00 1.409358e+01
      endloop
   endfacet
   facet normal 0.000000e+00 -1.000000e+00 0.000000e+00
      outer loop
         vertex 3.551147e+01 2.800000e+00 5.669136e+00
         vertex 3.643647e+01 2.800000e+00 1.409358e+01
         vertex 3.483647e+01 2.800000e+00 5.850000e+00
      endloop
   endfacet
   facet normal 0.000000e+00 -1.000000e+00 0.000000e+00
      outer loop
         vertex 3.483647e+01 2.800000e+00 5.850000e+00
         vertex 3.643647e+01 2.800000e+00 1.409358e+01
         vertex 3.622211e+01 2.800000e+00 1.329358e+01
      endloop
   endfacet
   facet normal 0.000000e+00 -1.000000e+00 0.000000e+00
      outer loop
         vertex 3.483647e+01 2.800000e+00 5.850000e+00
         vertex 3.622211e+01 2.800000e+00 1.329358e+01
         vertex 3.563647e+01 2.800000e+00 1.270794e+01
      endloop
   endfacet
   facet normal 0.000000e+00 -1.000000e+00 -0.000000e+00
      outer loop
         vertex 3.600561e+01 2.800000e+00 3.825001e+00
         vertex 3.551147e+01 2.800000e+00 3.330866e+00
         vertex 4.600000e+01 2.800000e+00 0.000000e+00
      endloop
   endfacet
   facet normal 0.000000e+00 -1.000000e+00 0.000000e+00
      outer loop
         vertex 4.600000e+01 2.800000e+00 0.000000e+00
         vertex 3.551147e+01 2.800000e+00 3.330866e+00
         vertex 3.483647e+01 2.800000e+00 3.150001e+00
      endloop
   endfacet
   facet normal 0.000000e+00 -1.000000e+00 0.000000e+00
      outer loop
         vertex 4.600000e+01 2.800000e+00 0.000000e+00
         vertex 3.483647e+01 2.800000e+00 3.150001e+00
         vertex 2.800000e+01 2.800000e+00 0.000000e+00
      endloop
   endfacet
   facet normal 0.000000e+00 -1.000000e+00 0.000000e+00
      outer loop
         vertex 2.800000e+01 2.800000e+00 0.000000e+00
         vertex 3.483647e+01 2.800000e+00 3.150001e+00
         vertex 3.416147e+01 2.800000e+00 3.330866e+00
      endloop
   endfacet
   facet normal 0.000000e+00 -1.000000e+00 0.000000e+00
      outer loop
         vertex 2.800000e+01 2.800000e+00 0.000000e+00
         vertex 3.416147e+01 2.800000e+00 3.330866e+00
         vertex 3.366734e+01 2.800000e+00 3.825001e+00
      endloop
   endfacet
   facet normal 0.000000e+00 -1.000000e+00 0.000000e+00
      outer loop
         vertex 1.175096e+01 2.800000e+00 2.875000e+01
         vertex 4.519135e+00 2.800000e+00 2.867500e+01
         vertex 1.155000e+01 2.800000e+00 2.800000e+01
      endloop
   endfacet
   facet normal -0.000000e+00 -1.000000e+00 0.000000e+00
      outer loop
         vertex 1.155000e+01 2.800000e+00 2.800000e+01
         vertex 4.519135e+00 2.800000e+00 2.867500e+01
         vertex 4.700001e+00 2.800000e+00 2.800000e+01
      endloop
   endfacet
   facet normal 0.000000e+00 -1.000000e+00 -0.000000e+00
      outer loop
         vertex 1.155000e+01 2.800000e+00 2.800000e+01
         vertex 4.700001e+00 2.800000e+00 2.800000e+01
         vertex 1.175096e+01 2.800000e+00 2.725000e+01
      endloop
   endfacet
   facet normal 0.000000e+00 -1.000000e+00 0.000000e+00
      outer loop
         vertex 1.175096e+01 2.800000e+00 2.725000e+01
         vertex 4.700001e+00 2.800000e+00 2.800000e+01
         vertex 4.519135e+00 2.800000e+00 2.732500e+01
      endloop
   endfacet
   facet normal -0.000000e+00 -1.000000e+00 0.000000e+00
      outer loop
         vertex 1.175096e+01 2.800000e+00 2.725000e+01
         vertex 4.519135e+00 2.800000e+00 2.732500e+01
         vertex 4.025001e+00 2.800000e+00 2.683087e+01
      endloop
   endfacet
   facet normal -0.000000e+00 -1.000000e+00 0.000000e+00
      outer loop
         vertex 3.366734e+01 2.800000e+00 5.175000e+00
         vertex 3.483647e+01 2.800000e+00 1.249358e+01
         vertex 3.348647e+01 2.800000e+00 4.500002e+00
      endloop
   endfacet
   facet normal 0.000000e+00 -1.000000e+00 0.000000e+00
      outer loop
         vertex 3.348647e+01 2.800000e+00 4.500002e+00
         vertex 3.483647e+01 2.800000e+00 1.249358e+01
         vertex 3.403647e+01 2.800000e+00 1.270794e+01
      endloop
   endfacet
   facet normal -0.000000e+00 -1.000000e+00 0.000000e+00
      outer loop
         vertex 3.348647e+01 2.800000e+00 4.500002e+00
         vertex 3.403647e+01 2.800000e+00 1.270794e+01
         vertex 2.800000e+01 2.800000e+00 0.000000e+00
      endloop
   endfacet
   facet normal 0.000000e+00 -1.000000e+00 0.000000e+00
      outer loop
         vertex 2.800000e+01 2.800000e+00 0.000000e+00
         vertex 3.403647e+01 2.800000e+00 1.270794e+01
         vertex 3.345083e+01 2.800000e+00 1.329358e+01
      endloop
   endfacet
   facet normal 0.000000e+00 -1.000000e+00 0.000000e+00
      outer loop
         vertex 2.800000e+01 2.800000e+00 0.000000e+00
         vertex 3.345083e+01 2.800000e+00 1.329358e+01
         vertex 2.800000e+01 2.800000e+00 2.000000e+01
      endloop
   endfacet
   facet normal 0.000000e+00 -1.000000e+00 0.000000e+00
      outer loop
         vertex 2.800000e+01 2.800000e+00 2.000000e+01
         vertex 3.345083e+01 2.800000e+00 1.329358e+01
         vertex 3.323647e+01 2.800000e+00 1.409358e+01
      endloop
   endfacet
   facet normal 0.000000e+00 -1.000000e+00 0.000000e+00
      outer loop
         vertex 2.800000e+01 2.800000e+00 2.000000e+01
         vertex 3.323647e+01 2.800000e+00 1.409358e+01
         vertex 3.345083e+01 2.800000e+00 1.489358e+01
      endloop
   endfacet
   facet normal -1.000000e+00 -0.000000e+00 -0.000000e+00
      outer loop
         vertex 2.800000e+01 1.780000e+01 2.000000e+01
         vertex 2.800000e+01 1.780000e+01 0.000000e+00
         vertex 2.800000e+01 2.800000e+00 2.000000e+01
      endloop
   endfacet
   facet normal -1.000000e+00 0.000000e+00 0.000000e+00
      outer loop
         vertex 2.800000e+01 2.800000e+00 2.000000e+01
         vertex 2.800000e+01 1.780000e+01 0.000000e+00
         vertex 2.800000e+01 2.800000e+00 0.000000e+00
      endloop
   endfacet
   facet normal -1.000000e+00 -0.000000e+00 -0.000000e+00
      outer loop
         vertex 0.000000e+00 1.780000e+01 3.600000e+01
         vertex 0.000000e+00 1.780000e+01 2.000000e+01
         vertex 0.000000e+00 2.800000e+00 3.600000e+01
      endloop
   endfacet
   facet normal -1.000000e+00 0.000000e+00 0.000000e+00
      outer loop
         vertex 0.000000e+00 2.800000e+00 3.600000e+01
         vertex 0.000000e+00 1.780000e+01 2.000000e+01
         vertex 0.000000e+00 2.800000e+00 2.000000e+01
      endloop
   endfacet
   facet normal 1.000000e+00 0.000000e+00 0.000000e+00
      outer loop
         vertex 4.600000e+01 1.780000e+01 5.600000e+01
         vertex 4.600000e+01 1.280000e+01 5.600000e+01
         vertex 4.600000e+01 1.280000e+01 3.600000e+01
      endloop
   endfacet
   facet normal 1.000000e+00 -0.000000e+00 0.000000e+00
      outer loop
         vertex 4.600000e+01 2.800000e+00 3.600000e+01
         vertex 4.600000e+01 2.800000e+00 0.000000e+00
         vertex 4.600000e+01 1.280000e+01 3.600000e+01
      endloop
   endfacet
   facet normal 1.000000e+00 0.000000e+00 0.000000e+00
      outer loop
         vertex 4.600000e+01 1.280000e+01 3.600000e+01
         vertex 4.600000e+01 2.800000e+00 0.000000e+00
         vertex 4.600000e+01 1.780000e+01 0.000000e+00
      endloop
   endfacet
   facet normal 1.000000e+00 -0.000000e+00 0.000000e+00
      outer loop
         vertex 4.600000e+01 1.280000e+01 3.600000e+01
         vertex 4.600000e+01 1.780000e+01 0.000000e+00
         vertex 4.600000e+01 1.780000e+01 5.600000e+01
      endloop
   endfacet
   facet normal 0.000000e+00 0.000000e+00 -1.000000e+00
      outer loop
         vertex 2.800000e+01 1.780000e+01 0.000000e+00
         vertex 4.600000e+01 1.780000e+01 0.000000e+00
         vertex 2.800000e+01 2.800000e+00 0.000000e+00
      endloop
   endfacet
   facet normal 0.000000e+00 0.000000e+00 -1.000000e+00
      outer loop
         vertex 2.800000e+01 2.800000e+00 0.000000e+00
         vertex 4.600000e+01 1.780000e+01 0.000000e+00
         vertex 4.600000e+01 2.800000e+00 0.000000e+00
      endloop
   endfacet
   facet normal 0.000000e+00 1.000000e+00 0.000000e+00
      outer loop
         vertex 3.366734e+01 1.780000e+01 5.082500e+01
         vertex 3.416147e+01 1.780000e+01 5.033087e+01
         vertex 3.781460e+01 1.780000e+01 1.445519e+01
      endloop
   endfacet
   facet normal 0.000000e+00 1.000000e+00 0.000000e+00
      outer loop
         vertex 2.800000e+01 1.780000e+01 5.600000e+01
         vertex 3.366734e+01 1.780000e+01 5.217500e+01
         vertex 3.348647e+01 1.780000e+01 5.150000e+01
      endloop
   endfacet
   facet normal 0.000000e+00 1.000000e+00 0.000000e+00
      outer loop
         vertex 2.800000e+01 1.780000e+01 5.600000e+01
         vertex 3.348647e+01 1.780000e+01 5.150000e+01
         vertex 2.800000e+01 1.780000e+01 3.600000e+01
      endloop
   endfacet
   facet normal 0.000000e+00 1.000000e+00 0.000000e+00
      outer loop
         vertex 3.781460e+01 1.780000e+01 1.445519e+01
         vertex 3.730542e+01 1.780000e+01 1.579777e+01
         vertex 3.366734e+01 1.780000e+01 5.082500e+01
      endloop
   endfacet
   facet normal 0.000000e+00 1.000000e+00 0.000000e+00
      outer loop
         vertex 3.366734e+01 1.780000e+01 5.082500e+01
         vertex 3.730542e+01 1.780000e+01 1.579777e+01
         vertex 3.623064e+01 1.780000e+01 1.674995e+01
      endloop
   endfacet
   facet normal 0.000000e+00 1.000000e+00 0.000000e+00
      outer loop
         vertex 3.366734e+01 1.780000e+01 5.082500e+01
         vertex 3.623064e+01 1.780000e+01 1.674995e+01
         vertex 3.483647e+01 1.780000e+01 1.709358e+01
      endloop
   endfacet
   facet normal 0.000000e+00 1.000000e+00 0.000000e+00
      outer loop
         vertex 3.348647e+01 1.780000e+01 4.500002e+00
         vertex 3.366734e+01 1.780000e+01 3.825001e+00
         vertex 2.800000e+01 1.780000e+01 0.000000e+00
      endloop
   endfacet
   facet normal 0.000000e+00 1.000000e+00 0.000000e+00
      outer loop
         vertex 2.675001e+00 1.780000e+01 2.916914e+01
         vertex 2.180867e+00 1.780000e+01 2.867500e+01
         vertex 0.000000e+00 1.780000e+01 3.600000e+01
      endloop
   endfacet
   facet normal 0.000000e+00 1.000000e+00 0.000000e+00
      outer loop
         vertex 0.000000e+00 1.780000e+01 3.600000e+01
         vertex 2.180867e+00 1.780000e+01 2.867500e+01
         vertex 2.000000e+00 1.780000e+01 2.800000e+01
      endloop
   endfacet
   facet normal 0.000000e+00 1.000000e+00 0.000000e+00
      outer loop
         vertex 0.000000e+00 1.780000e+01 3.600000e+01
         vertex 2.000000e+00 1.780000e+01 2.800000e+01
         vertex 0.000000e+00 1.780000e+01 2.000000e+01
      endloop
   endfacet
   facet normal 0.000000e+00 1.000000e+00 0.000000e+00
      outer loop
         vertex 0.000000e+00 1.780000e+01 2.000000e+01
         vertex 2.000000e+00 1.780000e+01 2.800000e+01
         vertex 2.180867e+00 1.780000e+01 2.732500e+01
      endloop
   endfacet
   facet normal 0.000000e+00 1.000000e+00 -0.000000e+00
      outer loop
         vertex 4.700001e+00 1.780000e+01 2.800000e+01
         vertex 4.519135e+00 1.780000e+01 2.867500e+01
         vertex 2.800000e+01 1.780000e+01 3.600000e+01
      endloop
   endfacet
   facet normal 0.000000e+00 1.000000e+00 0.000000e+00
      outer loop
         vertex 2.800000e+01 1.780000e+01 3.600000e+01
         vertex 4.519135e+00 1.780000e+01 2.867500e+01
         vertex 4.025001e+00 1.780000e+01 2.916914e+01
      endloop
   endfacet
   facet normal 0.000000e+00 1.000000e+00 0.000000e+00
      outer loop
         vertex 2.800000e+01 1.780000e+01 3.600000e+01
         vertex 4.025001e+00 1.780000e+01 2.916914e+01
         vertex 0.000000e+00 1.780000e+01 3.600000e+01
      endloop
   endfacet
   facet normal 0.000000e+00 1.000000e+00 0.000000e+00
      outer loop
         vertex 0.000000e+00 1.780000e+01 3.600000e+01
         vertex 4.025001e+00 1.780000e+01 2.916914e+01
         vertex 3.350001e+00 1.780000e+01 2.935000e+01
      endloop
   endfacet
   facet normal 0.000000e+00 1.000000e+00 0.000000e+00
      outer loop
         vertex 0.000000e+00 1.780000e+01 3.600000e+01
         vertex 3.350001e+00 1.780000e+01 2.935000e+01
         vertex 2.675001e+00 1.780000e+01 2.916914e+01
      endloop
   endfacet
   facet normal 0.000000e+00 1.000000e+00 0.000000e+00
      outer loop
         vertex 2.800000e+01 1.780000e+01 2.000000e+01
         vertex 3.483647e+01 1.780000e+01 1.709358e+01
         vertex 3.344230e+01 1.780000e+01 1.674995e+01
      endloop
   endfacet
   facet normal 0.000000e+00 1.000000e+00 -0.000000e+00
      outer loop
         vertex 3.600561e+01 1.780000e+01 5.217500e+01
         vertex 3.551147e+01 1.780000e+01 5.266914e+01
         vertex 4.600000e+01 1.780000e+01 5.600000e+01
      endloop
   endfacet
   facet normal 0.000000e+00 1.000000e+00 0.000000e+00
      outer loop
         vertex 4.600000e+01 1.780000e+01 5.600000e+01
         vertex 3.551147e+01 1.780000e+01 5.266914e+01
         vertex 3.483647e+01 1.780000e+01 5.285000e+01
      endloop
   endfacet
   facet normal 0.000000e+00 1.000000e+00 0.000000e+00
      outer loop
         vertex 4.600000e+01 1.780000e+01 5.600000e+01
         vertex 3.483647e+01 1.780000e+01 5.285000e+01
         vertex 2.800000e+01 1.780000e+01 5.600000e+01
      endloop
   endfacet
   facet normal 0.000000e+00 1.000000e+00 0.000000e+00
      outer loop
         vertex 2.800000e+01 1.780000e+01 5.600000e+01
         vertex 3.483647e+01 1.780000e+01 5.285000e+01
         vertex 3.416147e+01 1.780000e+01 5.266914e+01
      endloop
   endfacet
   facet normal 0.000000e+00 1.000000e+00 0.000000e+00
      outer loop
         vertex 2.800000e+01 1.780000e+01 5.600000e+01
         vertex 3.416147e+01 1.780000e+01 5.266914e+01
         vertex 3.366734e+01 1.780000e+01 5.217500e+01
      endloop
   endfacet
   facet normal 0.000000e+00 1.000000e+00 0.000000e+00
      outer loop
         vertex 3.344230e+01 1.780000e+01 1.674995e+01
         vertex 3.236752e+01 1.780000e+01 1.579777e+01
         vertex 2.800000e+01 1.780000e+01 2.000000e+01
      endloop
   endfacet
   facet normal 0.000000e+00 1.000000e+00 0.000000e+00
      outer loop
         vertex 2.800000e+01 1.780000e+01 2.000000e+01
         vertex 3.236752e+01 1.780000e+01 1.579777e+01
         vertex 3.185834e+01 1.780000e+01 1.445519e+01
      endloop
   endfacet
   facet normal 0.000000e+00 1.000000e+00 0.000000e+00
      outer loop
         vertex 2.800000e+01 1.780000e+01 2.000000e+01
         vertex 3.185834e+01 1.780000e+01 1.445519e+01
         vertex 3.203142e+01 1.780000e+01 1.302976e+01
      endloop
   endfacet
   facet normal 0.000000e+00 1.000000e+00 0.000000e+00
      outer loop
         vertex 2.180867e+00 1.780000e+01 2.732500e+01
         vertex 2.675001e+00 1.780000e+01 2.683087e+01
         vertex 0.000000e+00 1.780000e+01 2.000000e+01
      endloop
   endfacet
   facet normal 0.000000e+00 1.000000e+00 0.000000e+00
      outer loop
         vertex 0.000000e+00 1.780000e+01 2.000000e+01
         vertex 2.675001e+00 1.780000e+01 2.683087e+01
         vertex 3.350001e+00 1.780000e+01 2.665000e+01
      endloop
   endfacet
   facet normal 0.000000e+00 1.000000e+00 0.000000e+00
      outer loop
         vertex 0.000000e+00 1.780000e+01 2.000000e+01
         vertex 3.350001e+00 1.780000e+01 2.665000e+01
         vertex 2.800000e+01 1.780000e+01 2.000000e+01
      endloop
   endfacet
   facet normal 0.000000e+00 1.000000e+00 0.000000e+00
      outer loop
         vertex 2.800000e+01 1.780000e+01 2.000000e+01
         vertex 3.350001e+00 1.780000e+01 2.665000e+01
         vertex 4.025001e+00 1.780000e+01 2.683087e+01
      endloop
   endfacet
   facet normal 0.000000e+00 1.000000e+00 0.000000e+00
      outer loop
         vertex 2.800000e+01 1.780000e+01 2.000000e+01
         vertex 4.025001e+00 1.780000e+01 2.683087e+01
         vertex 4.519135e+00 1.780000e+01 2.732500e+01
      endloop
   endfacet
   facet normal -0.000000e+00 1.000000e+00 0.000000e+00
      outer loop
         vertex 4.519135e+00 1.780000e+01 2.732500e+01
         vertex 4.700001e+00 1.780000e+01 2.800000e+01
         vertex 2.800000e+01 1.780000e+01 2.000000e+01
      endloop
   endfacet
   facet normal 0.000000e+00 1.000000e+00 0.000000e+00
      outer loop
         vertex 2.800000e+01 1.780000e+01 2.000000e+01
         vertex 4.700001e+00 1.780000e+01 2.800000e+01
         vertex 2.800000e+01 1.780000e+01 3.600000e+01
      endloop
   endfacet
   facet normal -0.000000e+00 1.000000e+00 -0.000000e+00
      outer loop
         vertex 2.800000e+01 1.780000e+01 2.000000e+01
         vertex 2.800000e+01 1.780000e+01 3.600000e+01
         vertex 3.483647e+01 1.780000e+01 1.709358e+01
      endloop
   endfacet
   facet normal 0.000000e+00 1.000000e+00 0.000000e+00
      outer loop
         vertex 3.483647e+01 1.780000e+01 1.709358e+01
         vertex 2.800000e+01 1.780000e+01 3.600000e+01
         vertex 3.348647e+01 1.780000e+01 5.150000e+01
      endloop
   endfacet
   facet normal 0.000000e+00 1.000000e+00 0.000000e+00
      outer loop
         vertex 3.483647e+01 1.780000e+01 1.709358e+01
         vertex 3.348647e+01 1.780000e+01 5.150000e+01
         vertex 3.366734e+01 1.780000e+01 5.082500e+01
      endloop
   endfacet
   facet normal 0.000000e+00 1.000000e+00 -0.000000e+00
      outer loop
         vertex 3.348647e+01 1.780000e+01 4.500002e+00
         vertex 2.800000e+01 1.780000e+01 0.000000e+00
         vertex 3.366734e+01 1.780000e+01 5.175000e+00
      endloop
   endfacet
   facet normal 0.000000e+00 1.000000e+00 0.000000e+00
      outer loop
         vertex 3.366734e+01 1.780000e+01 5.175000e+00
         vertex 2.800000e+01 1.780000e+01 0.000000e+00
         vertex 2.800000e+01 1.780000e+01 2.000000e+01
      endloop
   endfacet
   facet normal 0.000000e+00 1.000000e+00 -0.000000e+00
      outer loop
         vertex 3.366734e+01 1.780000e+01 5.175000e+00
         vertex 2.800000e+01 1.780000e+01 2.000000e+01
         vertex 3.416147e+01 1.780000e+01 5.669136e+00
      endloop
   endfacet
   facet normal 0.000000e+00 1.000000e+00 0.000000e+00
      outer loop
         vertex 3.416147e+01 1.780000e+01 5.669136e+00
         vertex 2.800000e+01 1.780000e+01 2.000000e+01
         vertex 3.203142e+01 1.780000e+01 1.302976e+01
      endloop
   endfacet
   facet normal 0.000000e+00 1.000000e+00 -0.000000e+00
      outer loop
         vertex 3.416147e+01 1.780000e+01 5.669136e+00
         vertex 3.203142e+01 1.780000e+01 1.302976e+01
         vertex 3.483647e+01 1.780000e+01 5.850000e+00
      endloop
   endfacet
   facet normal 0.000000e+00 1.000000e+00 0.000000e+00
      outer loop
         vertex 3.366734e+01 1.780000e+01 3.825001e+00
         vertex 3.416147e+01 1.780000e+01 3.330866e+00
         vertex 2.800000e+01 1.780000e+01 0.000000e+00
      endloop
   endfacet
   facet normal 0.000000e+00 1.000000e+00 0.000000e+00
      outer loop
         vertex 2.800000e+01 1.780000e+01 0.000000e+00
         vertex 3.416147e+01 1.780000e+01 3.330866e+00
         vertex 3.483647e+01 1.780000e+01 3.150001e+00
      endloop
   endfacet
   facet normal 0.000000e+00 1.000000e+00 0.000000e+00
      outer loop
         vertex 2.800000e+01 1.780000e+01 0.000000e+00
         vertex 3.483647e+01 1.780000e+01 3.150001e+00
         vertex 4.600000e+01 1.780000e+01 0.000000e+00
      endloop
   endfacet
   facet normal 0.000000e+00 1.000000e+00 0.000000e+00
      outer loop
         vertex 4.600000e+01 1.780000e+01 0.000000e+00
         vertex 3.483647e+01 1.780000e+01 3.150001e+00
         vertex 3.551147e+01 1.780000e+01 3.330866e+00
      endloop
   endfacet
   facet normal 0.000000e+00 1.000000e+00 0.000000e+00
      outer loop
         vertex 4.600000e+01 1.780000e+01 0.000000e+00
         vertex 3.551147e+01 1.780000e+01 3.330866e+00
         vertex 3.600561e+01 1.780000e+01 3.825001e+00
      endloop
   endfacet
   facet normal -0.000000e+00 1.000000e+00 0.000000e+00
      outer loop
         vertex 3.764152e+01 1.780000e+01 1.302976e+01
         vertex 3.781460e+01 1.780000e+01 1.445519e+01
         vertex 4.600000e+01 1.780000e+01 0.000000e+00
      endloop
   endfacet
   facet normal 0.000000e+00 1.000000e+00 0.000000e+00
      outer loop
         vertex 3.203142e+01 1.780000e+01 1.302976e+01
         vertex 3.284710e+01 1.780000e+01 1.184805e+01
         vertex 3.483647e+01 1.780000e+01 5.850000e+00
      endloop
   endfacet
   facet normal 0.000000e+00 1.000000e+00 0.000000e+00
      outer loop
         vertex 3.483647e+01 1.780000e+01 5.850000e+00
         vertex 3.284710e+01 1.780000e+01 1.184805e+01
         vertex 3.411852e+01 1.780000e+01 1.118075e+01
      endloop
   endfacet
   facet normal -0.000000e+00 1.000000e+00 -0.000000e+00
      outer loop
         vertex 3.483647e+01 1.780000e+01 5.850000e+00
         vertex 3.411852e+01 1.780000e+01 1.118075e+01
         vertex 3.551147e+01 1.780000e+01 5.669136e+00
      endloop
   endfacet
   facet normal 0.000000e+00 1.000000e+00 -0.000000e+00
      outer loop
         vertex 3.551147e+01 1.780000e+01 5.669136e+00
         vertex 3.411852e+01 1.780000e+01 1.118075e+01
         vertex 3.555442e+01 1.780000e+01 1.118075e+01
      endloop
   endfacet
   facet normal 0.000000e+00 1.000000e+00 0.000000e+00
      outer loop
         vertex 3.416147e+01 1.780000e+01 5.033087e+01
         vertex 3.483647e+01 1.780000e+01 5.015000e+01
         vertex 3.781460e+01 1.780000e+01 1.445519e+01
      endloop
   endfacet
   facet normal 0.000000e+00 1.000000e+00 0.000000e+00
      outer loop
         vertex 3.781460e+01 1.780000e+01 1.445519e+01
         vertex 3.483647e+01 1.780000e+01 5.015000e+01
         vertex 3.551147e+01 1.780000e+01 5.033087e+01
      endloop
   endfacet
   facet normal -0.000000e+00 1.000000e+00 -0.000000e+00
      outer loop
         vertex 3.781460e+01 1.780000e+01 1.445519e+01
         vertex 3.551147e+01 1.780000e+01 5.033087e+01
         vertex 4.600000e+01 1.780000e+01 0.000000e+00
      endloop
   endfacet
   facet normal 0.000000e+00 1.000000e+00 0.000000e+00
      outer loop
         vertex 4.600000e+01 1.780000e+01 0.000000e+00
         vertex 3.551147e+01 1.780000e+01 5.033087e+01
         vertex 3.600561e+01 1.780000e+01 5.082500e+01
      endloop
   endfacet
   facet normal 0.000000e+00 1.000000e+00 -0.000000e+00
      outer loop
         vertex 4.600000e+01 1.780000e+01 0.000000e+00
         vertex 3.600561e+01 1.780000e+01 5.082500e+01
         vertex 4.600000e+01 1.780000e+01 5.600000e+01
      endloop
   endfacet
   facet normal 0.000000e+00 1.000000e+00 0.000000e+00
      outer loop
         vertex 4.600000e+01 1.780000e+01 5.600000e+01
         vertex 3.600561e+01 1.780000e+01 5.082500e+01
         vertex 3.618647e+01 1.780000e+01 5.150000e+01
      endloop
   endfacet
   facet normal 0.000000e+00 1.000000e+00 0.000000e+00
      outer loop
         vertex 4.600000e+01 1.780000e+01 5.600000e+01
         vertex 3.618647e+01 1.780000e+01 5.150000e+01
         vertex 3.600561e+01 1.780000e+01 5.217500e+01
      endloop
   endfacet
   facet normal -0.000000e+00 1.000000e+00 0.000000e+00
      outer loop
         vertex 3.555442e+01 1.780000e+01 1.118075e+01
         vertex 3.682584e+01 1.780000e+01 1.184805e+01
         vertex 3.551147e+01 1.780000e+01 5.669136e+00
      endloop
   endfacet
   facet normal 0.000000e+00 1.000000e+00 0.000000e+00
      outer loop
         vertex 3.551147e+01 1.780000e+01 5.669136e+00
         vertex 3.682584e+01 1.780000e+01 1.184805e+01
         vertex 3.764152e+01 1.780000e+01 1.302976e+01
      endloop
   endfacet
   facet normal -0.000000e+00 1.000000e+00 0.000000e+00
      outer loop
         vertex 3.551147e+01 1.780000e+01 5.669136e+00
         vertex 3.764152e+01 1.780000e+01 1.302976e+01
         vertex 3.600561e+01 1.780000e+01 5.175000e+00
      endloop
   endfacet
   facet normal -0.000000e+00 1.000000e+00 0.000000e+00
      outer loop
         vertex 3.600561e+01 1.780000e+01 5.175000e+00
         vertex 3.764152e+01 1.780000e+01 1.302976e+01
         vertex 4.600000e+01 1.780000e+01 0.000000e+00
      endloop
   endfacet
   facet normal 0.000000e+00 1.000000e+00 0.000000e+00
      outer loop
         vertex 3.600561e+01 1.780000e+01 5.175000e+00
         vertex 4.600000e+01 1.780000e+01 0.000000e+00
         vertex 3.618647e+01 1.780000e+01 4.500002e+00
      endloop
   endfacet
   facet normal 0.000000e+00 1.000000e+00 0.000000e+00
      outer loop
         vertex 3.618647e+01 1.780000e+01 4.500002e+00
         vertex 4.600000e+01 1.780000e+01 0.000000e+00
         vertex 3.600561e+01 1.780000e+01 3.825001e+00
      endloop
   endfacet
   facet normal -2.588192e-01 0.000000e+00 9.659258e-01
      outer loop
         vertex 1.305000e+01 0.000000e+00 2.950000e+01
         vertex 1.305000e+01 2.800000e+00 2.950000e+01
         vertex 1.230000e+01 2.800000e+00 2.929904e+01
      endloop
   endfacet
   facet normal -2.588192e-01 0.000000e+00 9.659258e-01
      outer loop
         vertex 1.305000e+01 0.000000e+00 2.950000e+01
         vertex 1.230000e+01 2.800000e+00 2.929904e+01
         vertex 1.230000e+01 0.000000e+00 2.929904e+01
      endloop
   endfacet
   facet normal -7.071063e-01 0.000000e+00 7.071073e-01
      outer loop
         vertex 1.230000e+01 0.000000e+00 2.929904e+01
         vertex 1.230000e+01 2.800000e+00 2.929904e+01
         vertex 1.175096e+01 2.800000e+00 2.875000e+01
      endloop
   endfacet
   facet normal -7.071063e-01 0.000000e+00 7.071073e-01
      outer loop
         vertex 1.230000e+01 0.000000e+00 2.929904e+01
         vertex 1.175096e+01 2.800000e+00 2.875000e+01
         vertex 1.175096e+01 0.000000e+00 2.875000e+01
      endloop
   endfacet
   facet normal -9.659256e-01 0.000000e+00 2.588199e-01
      outer loop
         vertex 1.175096e+01 0.000000e+00 2.875000e+01
         vertex 1.175096e+01 2.800000e+00 2.875000e+01
         vertex 1.155000e+01 2.800000e+00 2.800000e+01
      endloop
   endfacet
   facet normal -9.659256e-01 0.000000e+00 2.588199e-01
      outer loop
         vertex 1.175096e+01 0.000000e+00 2.875000e+01
         vertex 1.155000e+01 2.800000e+00 2.800000e+01
         vertex 1.155000e+01 0.000000e+00 2.800000e+01
      endloop
   endfacet
   facet normal -9.659256e-01 0.000000e+00 -2.588199e-01
      outer loop
         vertex 1.155000e+01 0.000000e+00 2.800000e+01
         vertex 1.155000e+01 2.800000e+00 2.800000e+01
         vertex 1.175096e+01 2.800000e+00 2.725000e+01
      endloop
   endfacet
   facet normal -9.659256e-01 0.000000e+00 -2.588199e-01
      outer loop
         vertex 1.155000e+01 0.000000e+00 2.800000e+01
         vertex 1.175096e+01 2.800000e+00 2.725000e+01
         vertex 1.175096e+01 0.000000e+00 2.725000e+01
      endloop
   endfacet
   facet normal -7.071063e-01 0.000000e+00 -7.071073e-01
      outer loop
         vertex 1.175096e+01 0.000000e+00 2.725000e+01
         vertex 1.175096e+01 2.800000e+00 2.725000e+01
         vertex 1.230000e+01 2.800000e+00 2.670096e+01
      endloop
   endfacet
   facet normal -7.071063e-01 0.000000e+00 -7.071073e-01
      outer loop
         vertex 1.175096e+01 0.000000e+00 2.725000e+01
         vertex 1.230000e+01 2.800000e+00 2.670096e+01
         vertex 1.230000e+01 0.000000e+00 2.670096e+01
      endloop
   endfacet
   facet normal -2.588192e-01 0.000000e+00 -9.659258e-01
      outer loop
         vertex 1.230000e+01 0.000000e+00 2.670096e+01
         vertex 1.230000e+01 2.800000e+00 2.670096e+01
         vertex 1.305000e+01 2.800000e+00 2.650000e+01
      endloop
   endfacet
   facet normal -2.588192e-01 0.000000e+00 -9.659258e-01
      outer loop
         vertex 1.230000e+01 0.000000e+00 2.670096e+01
         vertex 1.305000e+01 2.800000e+00 2.650000e+01
         vertex 1.305000e+01 0.000000e+00 2.650000e+01
      endloop
   endfacet
   facet normal 0.000000e+00 0.000000e+00 -1.000000e+00
      outer loop
         vertex 4.295000e+01 0.000000e+00 2.650000e+01
         vertex 1.305000e+01 0.000000e+00 2.650000e+01
         vertex 4.295000e+01 2.800000e+00 2.650000e+01
      endloop
   endfacet
   facet normal -0.000000e+00 0.000000e+00 -1.000000e+00
      outer loop
         vertex 4.295000e+01 2.800000e+00 2.650000e+01
         vertex 1.305000e+01 0.000000e+00 2.650000e+01
         vertex 1.305000e+01 2.800000e+00 2.650000e+01
      endloop
   endfacet
   facet normal 2.588192e-01 0.000000e+00 -9.659258e-01
      outer loop
         vertex 4.295000e+01 0.000000e+00 2.650000e+01
         vertex 4.295000e+01 2.800000e+00 2.650000e+01
         vertex 4.370000e+01 2.800000e+00 2.670096e+01
      endloop
   endfacet
   facet normal 2.588192e-01 0.000000e+00 -9.659258e-01
      outer loop
         vertex 4.295000e+01 0.000000e+00 2.650000e+01
         vertex 4.370000e+01 2.800000e+00 2.670096e+01
         vertex 4.370000e+01 0.000000e+00 2.670096e+01
      endloop
   endfacet
   facet normal 7.071063e-01 0.000000e+00 -7.071073e-01
      outer loop
         vertex 4.370000e+01 0.000000e+00 2.670096e+01
         vertex 4.370000e+01 2.800000e+00 2.670096e+01
         vertex 4.424904e+01 2.800000e+00 2.725000e+01
      endloop
   endfacet
   facet normal 7.071063e-01 0.000000e+00 -7.071073e-01
      outer loop
         vertex 4.370000e+01 0.000000e+00 2.670096e+01
         vertex 4.424904e+01 2.800000e+00 2.725000e+01
         vertex 4.424904e+01 0.000000e+00 2.725000e+01
      endloop
   endfacet
   facet normal 9.659256e-01 0.000000e+00 -2.588199e-01
      outer loop
         vertex 4.424904e+01 0.000000e+00 2.725000e+01
         vertex 4.424904e+01 2.800000e+00 2.725000e+01
         vertex 4.445000e+01 2.800000e+00 2.800000e+01
      endloop
   endfacet
   facet normal 9.659256e-01 0.000000e+00 -2.588199e-01
      outer loop
         vertex 4.424904e+01 0.000000e+00 2.725000e+01
         vertex 4.445000e+01 2.800000e+00 2.800000e+01
         vertex 4.445000e+01 0.000000e+00 2.800000e+01
      endloop
   endfacet
   facet normal 9.659256e-01 -0.000000e+00 2.588199e-01
      outer loop
         vertex 4.445000e+01 0.000000e+00 2.800000e+01
         vertex 4.445000e+01 2.800000e+00 2.800000e+01
         vertex 4.424904e+01 2.800000e+00 2.875000e+01
      endloop
   endfacet
   facet normal 9.659256e-01 0.000000e+00 2.588199e-01
      outer loop
         vertex 4.445000e+01 0.000000e+00 2.800000e+01
         vertex 4.424904e+01 2.800000e+00 2.875000e+01
         vertex 4.424904e+01 0.000000e+00 2.875000e+01
      endloop
   endfacet
   facet normal 7.071063e-01 -0.000000e+00 7.071073e-01
      outer loop
         vertex 4.424904e+01 0.000000e+00 2.875000e+01
         vertex 4.424904e+01 2.800000e+00 2.875000e+01
         vertex 4.370000e+01 2.800000e+00 2.929904e+01
      endloop
   endfacet
   facet normal 7.071063e-01 0.000000e+00 7.071073e-01
      outer loop
         vertex 4.424904e+01 0.000000e+00 2.875000e+01
         vertex 4.370000e+01 2.800000e+00 2.929904e+01
         vertex 4.370000e+01 0.000000e+00 2.929904e+01
      endloop
   endfacet
   facet normal 2.588192e-01 -0.000000e+00 9.659258e-01
      outer loop
         vertex 4.370000e+01 0.000000e+00 2.929904e+01
         vertex 4.370000e+01 2.800000e+00 2.929904e+01
         vertex 4.295000e+01 2.800000e+00 2.950000e+01
      endloop
   endfacet
   facet normal 2.588192e-01 0.000000e+00 9.659258e-01
      outer loop
         vertex 4.370000e+01 0.000000e+00 2.929904e+01
         vertex 4.295000e+01 2.800000e+00 2.950000e+01
         vertex 4.295000e+01 0.000000e+00 2.950000e+01
      endloop
   endfacet
   facet normal 0.000000e+00 0.000000e+00 1.000000e+00
      outer loop
         vertex 1.305000e+01 0.000000e+00 2.950000e+01
         vertex 4.295000e+01 0.000000e+00 2.950000e+01
         vertex 1.305000e+01 2.800000e+00 2.950000e+01
      endloop
   endfacet
   facet normal -0.000000e+00 0.000000e+00 1.000000e+00
      outer loop
         vertex 1.305000e+01 2.800000e+00 2.950000e+01
         vertex 4.295000e+01 0.000000e+00 2.950000e+01
         vertex 4.295000e+01 2.800000e+00 2.950000e+01
      endloop
   endfacet
   facet normal 0.000000e+00 -1.000000e+00 0.000000e+00
      outer loop
         vertex 1.155000e+01 0.000000e+00 2.800000e+01
         vertex 1.175096e+01 0.000000e+00 2.725000e+01
         vertex 1.230000e+01 0.000000e+00 2.670096e+01
      endloop
   endfacet
   facet normal 0.000000e+00 -1.000000e+00 -0.000000e+00
      outer loop
         vertex 1.230000e+01 0.000000e+00 2.929904e+01
         vertex 1.175096e+01 0.000000e+00 2.875000e+01
         vertex 1.305000e+01 0.000000e+00 2.950000e+01
      endloop
   endfacet
   facet normal 0.000000e+00 -1.000000e+00 0.000000e+00
      outer loop
         vertex 1.305000e+01 0.000000e+00 2.950000e+01
         vertex 1.175096e+01 0.000000e+00 2.875000e+01
         vertex 1.155000e+01 0.000000e+00 2.800000e+01
      endloop
   endfacet
   facet normal -0.000000e+00 -1.000000e+00 0.000000e+00
      outer loop
         vertex 4.370000e+01 0.000000e+00 2.670096e+01
         vertex 4.424904e+01 0.000000e+00 2.725000e+01
         vertex 4.295000e+01 0.000000e+00 2.650000e+01
      endloop
   endfacet
   facet normal 0.000000e+00 -1.000000e+00 0.000000e+00
      outer loop
         vertex 4.295000e+01 0.000000e+00 2.650000e+01
         vertex 4.424904e+01 0.000000e+00 2.725000e+01
         vertex 4.445000e+01 0.000000e+00 2.800000e+01
      endloop
   endfacet
   facet normal 0.000000e+00 -1.000000e+00 0.000000e+00
      outer loop
         vertex 1.155000e+01 0.000000e+00 2.800000e+01
         vertex 1.230000e+01 0.000000e+00 2.670096e+01
         vertex 1.305000e+01 0.000000e+00 2.950000e+01
      endloop
   endfacet
   facet normal 0.000000e+00 -1.000000e+00 -0.000000e+00
      outer loop
         vertex 1.305000e+01 0.000000e+00 2.950000e+01
         vertex 1.230000e+01 0.000000e+00 2.670096e+01
         vertex 1.305000e+01 0.000000e+00 2.650000e+01
      endloop
   endfacet
   facet normal 0.000000e+00 -1.000000e+00 0.000000e+00
      outer loop
         vertex 1.305000e+01 0.000000e+00 2.950000e+01
         vertex 1.305000e+01 0.000000e+00 2.650000e+01
         vertex 4.295000e+01 0.000000e+00 2.950000e+01
      endloop
   endfacet
   facet normal 0.000000e+00 -1.000000e+00 -0.000000e+00
      outer loop
         vertex 4.295000e+01 0.000000e+00 2.950000e+01
         vertex 1.305000e+01 0.000000e+00 2.650000e+01
         vertex 4.295000e+01 0.000000e+00 2.650000e+01
      endloop
   endfacet
   facet normal 0.000000e+00 -1.000000e+00 0.000000e+00
      outer loop
         vertex 4.295000e+01 0.000000e+00 2.950000e+01
         vertex 4.295000e+01 0.000000e+00 2.650000e+01
         vertex 4.370000e+01 0.000000e+00 2.929904e+01
      endloop
   endfacet
   facet normal 0.000000e+00 -1.000000e+00 -0.000000e+00
      outer loop
         vertex 4.370000e+01 0.000000e+00 2.929904e+01
         vertex 4.295000e+01 0.000000e+00 2.650000e+01
         vertex 4.445000e+01 0.000000e+00 2.800000e+01
      endloop
   endfacet
   facet normal 0.000000e+00 -1.000000e+00 0.000000e+00
      outer loop
         vertex 4.370000e+01 0.000000e+00 2.929904e+01
         vertex 4.445000e+01 0.000000e+00 2.800000e+01
         vertex 4.424904e+01 0.000000e+00 2.875000e+01
      endloop
   endfacet
   facet normal 0.000000e+00 0.000000e+00 1.000000e+00
      outer loop
         vertex 2.800000e+01 1.780000e+01 3.600000e+01
         vertex 0.000000e+00 1.780000e+01 3.600000e+01
         vertex 2.800000e+01 1.280000e+01 3.600000e+01
      endloop
   endfacet
   facet normal 0.000000e+00 0.000000e+00 1.000000e+00
      outer loop
         vertex 2.800000e+01 1.280000e+01 3.600000e+01
         vertex 0.000000e+00 1.780000e+01 3.600000e+01
         vertex 0.000000e+00 2.800000e+00 3.600000e+01
      endloop
   endfacet
   facet normal -0.000000e+00 0.000000e+00 1.000000e+00
      outer loop
         vertex 2.800000e+01 1.280000e+01 3.600000e+01
         vertex 0.000000e+00 2.800000e+00 3.600000e+01
         vertex 4.600000e+01 1.280000e+01 3.600000e+01
      endloop
   endfacet
   facet normal 0.000000e+00 0.000000e+00 1.000000e+00
      outer loop
         vertex 4.600000e+01 1.280000e+01 3.600000e+01
         vertex 0.000000e+00 2.800000e+00 3.600000e+01
         vertex 4.600000e+01 2.800000e+00 3.600000e+01
      endloop
   endfacet
   facet normal 0.000000e+00 0.000000e+00 -1.000000e+00
      outer loop
         vertex 0.000000e+00 2.800000e+00 2.000000e+01
         vertex 0.000000e+00 1.780000e+01 2.000000e+01
         vertex 2.800000e+01 2.800000e+00 2.000000e+01
      endloop
   endfacet
   facet normal 0.000000e+00 0.000000e+00 -1.000000e+00
      outer loop
         vertex 2.800000e+01 2.800000e+00 2.000000e+01
         vertex 0.000000e+00 1.780000e+01 2.000000e+01
         vertex 2.800000e+01 1.780000e+01 2.000000e+01
      endloop
   endfacet
   facet normal -2.588176e-01 0.000000e+00 -9.659262e-01
      outer loop
         vertex 3.483647e+01 2.800000e+00 5.850000e+00
         vertex 3.483647e+01 1.780000e+01 5.850000e+00
         vertex 3.551147e+01 2.800000e+00 5.669136e+00
      endloop
   endfacet
   facet normal -2.588176e-01 0.000000e+00 -9.659262e-01
      outer loop
         vertex 3.551147e+01 2.800000e+00 5.669136e+00
         vertex 3.483647e+01 1.780000e+01 5.850000e+00
         vertex 3.551147e+01 1.780000e+01 5.669136e+00
      endloop
   endfacet
   facet normal -7.071081e-01 0.000000e+00 -7.071054e-01
      outer loop
         vertex 3.551147e+01 2.800000e+00 5.669136e+00
         vertex 3.551147e+01 1.780000e+01 5.669136e+00
         vertex 3.600561e+01 2.800000e+00 5.175000e+00
      endloop
   endfacet
   facet normal -7.071081e-01 0.000000e+00 -7.071054e-01
      outer loop
         vertex 3.600561e+01 2.800000e+00 5.175000e+00
         vertex 3.551147e+01 1.780000e+01 5.669136e+00
         vertex 3.600561e+01 1.780000e+01 5.175000e+00
      endloop
   endfacet
   facet normal -9.659257e-01 0.000000e+00 -2.588195e-01
      outer loop
         vertex 3.600561e+01 2.800000e+00 5.175000e+00
         vertex 3.600561e+01 1.780000e+01 5.175000e+00
         vertex 3.618647e+01 2.800000e+00 4.500002e+00
      endloop
   endfacet
   facet normal -9.659257e-01 0.000000e+00 -2.588195e-01
      outer loop
         vertex 3.618647e+01 2.800000e+00 4.500002e+00
         vertex 3.600561e+01 1.780000e+01 5.175000e+00
         vertex 3.618647e+01 1.780000e+01 4.500002e+00
      endloop
   endfacet
   facet normal -9.659259e-01 0.000000e+00 2.588189e-01
      outer loop
         vertex 3.618647e+01 2.800000e+00 4.500002e+00
         vertex 3.618647e+01 1.780000e+01 4.500002e+00
         vertex 3.600561e+01 2.800000e+00 3.825001e+00
      endloop
   endfacet
   facet normal -9.659259e-01 0.000000e+00 2.588189e-01
      outer loop
         vertex 3.600561e+01 2.800000e+00 3.825001e+00
         vertex 3.618647e+01 1.780000e+01 4.500002e+00
         vertex 3.600561e+01 1.780000e+01 3.825001e+00
      endloop
   endfacet
   facet normal -7.071081e-01 0.000000e+00 7.071054e-01
      outer loop
         vertex 3.600561e+01 2.800000e+00 3.825001e+00
         vertex 3.600561e+01 1.780000e+01 3.825001e+00
         vertex 3.551147e+01 2.800000e+00 3.330866e+00
      endloop
   endfacet
   facet normal -7.071081e-01 0.000000e+00 7.071054e-01
      outer loop
         vertex 3.551147e+01 2.800000e+00 3.330866e+00
         vertex 3.600561e+01 1.780000e+01 3.825001e+00
         vertex 3.551147e+01 1.780000e+01 3.330866e+00
      endloop
   endfacet
   facet normal -2.588176e-01 0.000000e+00 9.659262e-01
      outer loop
         vertex 3.551147e+01 2.800000e+00 3.330866e+00
         vertex 3.551147e+01 1.780000e+01 3.330866e+00
         vertex 3.483647e+01 2.800000e+00 3.150001e+00
      endloop
   endfacet
   facet normal -2.588176e-01 0.000000e+00 9.659262e-01
      outer loop
         vertex 3.483647e+01 2.800000e+00 3.150001e+00
         vertex 3.551147e+01 1.780000e+01 3.330866e+00
         vertex 3.483647e+01 1.780000e+01 3.150001e+00
      endloop
   endfacet
   facet normal 2.588178e-01 -0.000000e+00 9.659262e-01
      outer loop
         vertex 3.483647e+01 2.800000e+00 3.150001e+00
         vertex 3.483647e+01 1.780000e+01 3.150001e+00
         vertex 3.416147e+01 2.800000e+00 3.330866e+00
      endloop
   endfacet
   facet normal 2.588178e-01 -0.000000e+00 9.659262e-01
      outer loop
         vertex 3.416147e+01 2.800000e+00 3.330866e+00
         vertex 3.483647e+01 1.780000e+01 3.150001e+00
         vertex 3.416147e+01 1.780000e+01 3.330866e+00
      endloop
   endfacet
   facet normal 7.071074e-01 -0.000000e+00 7.071061e-01
      outer loop
         vertex 3.416147e+01 2.800000e+00 3.330866e+00
         vertex 3.416147e+01 1.780000e+01 3.330866e+00
         vertex 3.366734e+01 2.800000e+00 3.825001e+00
      endloop
   endfacet
   facet normal 7.071074e-01 -0.000000e+00 7.071061e-01
      outer loop
         vertex 3.366734e+01 2.800000e+00 3.825001e+00
         vertex 3.416147e+01 1.780000e+01 3.330866e+00
         vertex 3.366734e+01 1.780000e+01 3.825001e+00
      endloop
   endfacet
   facet normal 9.659259e-01 -0.000000e+00 2.588189e-01
      outer loop
         vertex 3.366734e+01 2.800000e+00 3.825001e+00
         vertex 3.366734e+01 1.780000e+01 3.825001e+00
         vertex 3.348647e+01 2.800000e+00 4.500002e+00
      endloop
   endfacet
   facet normal 9.659259e-01 -0.000000e+00 2.588189e-01
      outer loop
         vertex 3.348647e+01 2.800000e+00 4.500002e+00
         vertex 3.366734e+01 1.780000e+01 3.825001e+00
         vertex 3.348647e+01 1.780000e+01 4.500002e+00
      endloop
   endfacet
   facet normal 9.659257e-01 0.000000e+00 -2.588195e-01
      outer loop
         vertex 3.348647e+01 2.800000e+00 4.500002e+00
         vertex 3.348647e+01 1.780000e+01 4.500002e+00
         vertex 3.366734e+01 2.800000e+00 5.175000e+00
      endloop
   endfacet
   facet normal 9.659257e-01 0.000000e+00 -2.588195e-01
      outer loop
         vertex 3.366734e+01 2.800000e+00 5.175000e+00
         vertex 3.348647e+01 1.780000e+01 4.500002e+00
         vertex 3.366734e+01 1.780000e+01 5.175000e+00
      endloop
   endfacet
   facet normal 7.071074e-01 0.000000e+00 -7.071061e-01
      outer loop
         vertex 3.366734e+01 2.800000e+00 5.175000e+00
         vertex 3.366734e+01 1.780000e+01 5.175000e+00
         vertex 3.416147e+01 2.800000e+00 5.669136e+00
      endloop
   endfacet
   facet normal 7.071074e-01 0.000000e+00 -7.071061e-01
      outer loop
         vertex 3.416147e+01 2.800000e+00 5.669136e+00
         vertex 3.366734e+01 1.780000e+01 5.175000e+00
         vertex 3.416147e+01 1.780000e+01 5.669136e+00
      endloop
   endfacet
   facet normal 2.588178e-01 0.000000e+00 -9.659262e-01
      outer loop
         vertex 3.416147e+01 2.800000e+00 5.669136e+00
         vertex 3.416147e+01 1.780000e+01 5.669136e+00
         vertex 3.483647e+01 2.800000e+00 5.850000e+00
      endloop
   endfacet
   facet normal 2.588178e-01 0.000000e+00 -9.659262e-01
      outer loop
         vertex 3.483647e+01 2.800000e+00 5.850000e+00
         vertex 3.416147e+01 1.780000e+01 5.669136e+00
         vertex 3.483647e+01 1.780000e+01 5.850000e+00
      endloop
   endfacet
   facet normal -2.588190e-01 0.000000e+00 -9.659258e-01
      outer loop
         vertex 3.350001e+00 2.800000e+00 2.935000e+01
         vertex 3.350001e+00 1.780000e+01 2.935000e+01
         vertex 4.025001e+00 2.800000e+00 2.916914e+01
      endloop
   endfacet
   facet normal -2.588190e-01 0.000000e+00 -9.659258e-01
      outer loop
         vertex 4.025001e+00 2.800000e+00 2.916914e+01
         vertex 3.350001e+00 1.780000e+01 2.935000e+01
         vertex 4.025001e+00 1.780000e+01 2.916914e+01
      endloop
   endfacet
   facet normal -7.071072e-01 0.000000e+00 -7.071064e-01
      outer loop
         vertex 4.025001e+00 2.800000e+00 2.916914e+01
         vertex 4.025001e+00 1.780000e+01 2.916914e+01
         vertex 4.519135e+00 2.800000e+00 2.867500e+01
      endloop
   endfacet
   facet normal -7.071072e-01 0.000000e+00 -7.071064e-01
      outer loop
         vertex 4.519135e+00 2.800000e+00 2.867500e+01
         vertex 4.025001e+00 1.780000e+01 2.916914e+01
         vertex 4.519135e+00 1.780000e+01 2.867500e+01
      endloop
   endfacet
   facet normal -9.659255e-01 0.000000e+00 -2.588202e-01
      outer loop
         vertex 4.519135e+00 2.800000e+00 2.867500e+01
         vertex 4.519135e+00 1.780000e+01 2.867500e+01
         vertex 4.700001e+00 2.800000e+00 2.800000e+01
      endloop
   endfacet
   facet normal -9.659255e-01 0.000000e+00 -2.588202e-01
      outer loop
         vertex 4.700001e+00 2.800000e+00 2.800000e+01
         vertex 4.519135e+00 1.780000e+01 2.867500e+01
         vertex 4.700001e+00 1.780000e+01 2.800000e+01
      endloop
   endfacet
   facet normal -9.659255e-01 0.000000e+00 2.588202e-01
      outer loop
         vertex 4.700001e+00 2.800000e+00 2.800000e+01
         vertex 4.700001e+00 1.780000e+01 2.800000e+01
         vertex 4.519135e+00 2.800000e+00 2.732500e+01
      endloop
   endfacet
   facet normal -9.659255e-01 0.000000e+00 2.588202e-01
      outer loop
         vertex 4.519135e+00 2.800000e+00 2.732500e+01
         vertex 4.700001e+00 1.780000e+01 2.800000e+01
         vertex 4.519135e+00 1.780000e+01 2.732500e+01
      endloop
   endfacet
   facet normal -7.071072e-01 0.000000e+00 7.071064e-01
      outer loop
         vertex 4.519135e+00 2.800000e+00 2.732500e+01
         vertex 4.519135e+00 1.780000e+01 2.732500e+01
         vertex 4.025001e+00 2.800000e+00 2.683087e+01
      endloop
   endfacet
   facet normal -7.071072e-01 0.000000e+00 7.071064e-01
      outer loop
         vertex 4.025001e+00 2.800000e+00 2.683087e+01
         vertex 4.519135e+00 1.780000e+01 2.732500e+01
         vertex 4.025001e+00 1.780000e+01 2.683087e+01
      endloop
   endfacet
   facet normal -2.588190e-01 0.000000e+00 9.659258e-01
      outer loop
         vertex 4.025001e+00 2.800000e+00 2.683087e+01
         vertex 4.025001e+00 1.780000e+01 2.683087e+01
         vertex 3.350001e+00 2.800000e+00 2.665000e+01
      endloop
   endfacet
   facet normal -2.588190e-01 0.000000e+00 9.659258e-01
      outer loop
         vertex 3.350001e+00 2.800000e+00 2.665000e+01
         vertex 4.025001e+00 1.780000e+01 2.683087e+01
         vertex 3.350001e+00 1.780000e+01 2.665000e+01
      endloop
   endfacet
   facet normal 2.588190e-01 -0.000000e+00 9.659258e-01
      outer loop
         vertex 3.350001e+00 2.800000e+00 2.665000e+01
         vertex 3.350001e+00 1.780000e+01 2.665000e+01
         vertex 2.675001e+00 2.800000e+00 2.683087e+01
      endloop
   endfacet
   facet normal 2.588190e-01 -0.000000e+00 9.659258e-01
      outer loop
         vertex 2.675001e+00 2.800000e+00 2.683087e+01
         vertex 3.350001e+00 1.780000e+01 2.665000e+01
         vertex 2.675001e+00 1.780000e+01 2.683087e+01
      endloop
   endfacet
   facet normal 7.071072e-01 -0.000000e+00 7.071064e-01
      outer loop
         vertex 2.675001e+00 2.800000e+00 2.683087e+01
         vertex 2.675001e+00 1.780000e+01 2.683087e+01
         vertex 2.180867e+00 2.800000e+00 2.732500e+01
      endloop
   endfacet
   facet normal 7.071072e-01 -0.000000e+00 7.071064e-01
      outer loop
         vertex 2.180867e+00 2.800000e+00 2.732500e+01
         vertex 2.675001e+00 1.780000e+01 2.683087e+01
         vertex 2.180867e+00 1.780000e+01 2.732500e+01
      endloop
   endfacet
   facet normal 9.659255e-01 -0.000000e+00 2.588202e-01
      outer loop
         vertex 2.180867e+00 2.800000e+00 2.732500e+01
         vertex 2.180867e+00 1.780000e+01 2.732500e+01
         vertex 2.000000e+00 2.800000e+00 2.800000e+01
      endloop
   endfacet
   facet normal 9.659255e-01 -0.000000e+00 2.588202e-01
      outer loop
         vertex 2.000000e+00 2.800000e+00 2.800000e+01
         vertex 2.180867e+00 1.780000e+01 2.732500e+01
         vertex 2.000000e+00 1.780000e+01 2.800000e+01
      endloop
   endfacet
   facet normal 9.659255e-01 0.000000e+00 -2.588202e-01
      outer loop
         vertex 2.000000e+00 2.800000e+00 2.800000e+01
         vertex 2.000000e+00 1.780000e+01 2.800000e+01
         vertex 2.180867e+00 2.800000e+00 2.867500e+01
      endloop
   endfacet
   facet normal 9.659255e-01 0.000000e+00 -2.588202e-01
      outer loop
         vertex 2.180867e+00 2.800000e+00 2.867500e+01
         vertex 2.000000e+00 1.780000e+01 2.800000e+01
         vertex 2.180867e+00 1.780000e+01 2.867500e+01
      endloop
   endfacet
   facet normal 7.071072e-01 0.000000e+00 -7.071064e-01
      outer loop
         vertex 2.180867e+00 2.800000e+00 2.867500e+01
         vertex 2.180867e+00 1.780000e+01 2.867500e+01
         vertex 2.675001e+00 2.800000e+00 2.916914e+01
      endloop
   endfacet
   facet normal 7.071072e-01 0.000000e+00 -7.071064e-01
      outer loop
         vertex 2.675001e+00 2.800000e+00 2.916914e+01
         vertex 2.180867e+00 1.780000e+01 2.867500e+01
         vertex 2.675001e+00 1.780000e+01 2.916914e+01
      endloop
   endfacet
   facet normal 2.588190e-01 0.000000e+00 -9.659258e-01
      outer loop
         vertex 2.675001e+00 2.800000e+00 2.916914e+01
         vertex 2.675001e+00 1.780000e+01 2.916914e+01
         vertex 3.350001e+00 2.800000e+00 2.935000e+01
      endloop
   endfacet
   facet normal 2.588190e-01 0.000000e+00 -9.659258e-01
      outer loop
         vertex 3.350001e+00 2.800000e+00 2.935000e+01
         vertex 2.675001e+00 1.780000e+01 2.916914e+01
         vertex 3.350001e+00 1.780000e+01 2.935000e+01
      endloop
   endfacet
   facet normal -1.000000e+00 0.000000e+00 0.000000e+00
      outer loop
         vertex 2.800000e+01 1.280000e+01 3.600000e+01
         vertex 2.800000e+01 1.280000e+01 5.600000e+01
         vertex 2.800000e+01 1.780000e+01 3.600000e+01
      endloop
   endfacet
   facet normal -1.000000e+00 0.000000e+00 0.000000e+00
      outer loop
         vertex 2.800000e+01 1.780000e+01 3.600000e+01
         vertex 2.800000e+01 1.280000e+01 5.600000e+01
         vertex 2.800000e+01 1.780000e+01 5.600000e+01
      endloop
   endfacet
   facet normal 0.000000e+00 0.000000e+00 1.000000e+00
      outer loop
         vertex 2.800000e+01 1.280000e+01 5.600000e+01
         vertex 4.600000e+01 1.280000e+01 5.600000e+01
         vertex 2.800000e+01 1.780000e+01 5.600000e+01
      endloop
   endfacet
   facet normal -0.000000e+00 0.000000e+00 1.000000e+00
      outer loop
         vertex 2.800000e+01 1.780000e+01 5.600000e+01
         vertex 4.600000e+01 1.280000e+01 5.600000e+01
         vertex 4.600000e+01 1.780000e+01 5.600000e+01
      endloop
   endfacet
   facet normal 0.000000e+00 -1.000000e+00 0.000000e+00
      outer loop
         vertex 2.800000e+01 1.280000e+01 5.600000e+01
         vertex 3.348647e+01 1.280000e+01 5.150000e+01
         vertex 3.366734e+01 1.280000e+01 5.217500e+01
      endloop
   endfacet
   facet normal -0.000000e+00 -1.000000e+00 -0.000000e+00
      outer loop
         vertex 3.348647e+01 1.280000e+01 5.150000e+01
         vertex 2.800000e+01 1.280000e+01 5.600000e+01
         vertex 3.366734e+01 1.280000e+01 5.082500e+01
      endloop
   endfacet
   facet normal -0.000000e+00 -1.000000e+00 0.000000e+00
      outer loop
         vertex 3.366734e+01 1.280000e+01 5.082500e+01
         vertex 2.800000e+01 1.280000e+01 5.600000e+01
         vertex 2.800000e+01 1.280000e+01 3.600000e+01
      endloop
   endfacet
   facet normal 0.000000e+00 -1.000000e+00 -0.000000e+00
      outer loop
         vertex 3.366734e+01 1.280000e+01 5.082500e+01
         vertex 2.800000e+01 1.280000e+01 3.600000e+01
         vertex 3.416147e+01 1.280000e+01 5.033087e+01
      endloop
   endfacet
   facet normal 0.000000e+00 -1.000000e+00 0.000000e+00
      outer loop
         vertex 3.551147e+01 1.280000e+01 5.266914e+01
         vertex 4.600000e+01 1.280000e+01 5.600000e+01
         vertex 3.483647e+01 1.280000e+01 5.285000e+01
      endloop
   endfacet
   facet normal 0.000000e+00 -1.000000e+00 0.000000e+00
      outer loop
         vertex 3.483647e+01 1.280000e+01 5.285000e+01
         vertex 4.600000e+01 1.280000e+01 5.600000e+01
         vertex 2.800000e+01 1.280000e+01 5.600000e+01
      endloop
   endfacet
   facet normal -0.000000e+00 -1.000000e+00 0.000000e+00
      outer loop
         vertex 3.483647e+01 1.280000e+01 5.285000e+01
         vertex 2.800000e+01 1.280000e+01 5.600000e+01
         vertex 3.416147e+01 1.280000e+01 5.266914e+01
      endloop
   endfacet
   facet normal -0.000000e+00 -1.000000e+00 0.000000e+00
      outer loop
         vertex 3.416147e+01 1.280000e+01 5.266914e+01
         vertex 2.800000e+01 1.280000e+01 5.600000e+01
         vertex 3.366734e+01 1.280000e+01 5.217500e+01
      endloop
   endfacet
   facet normal 0.000000e+00 -1.000000e+00 0.000000e+00
      outer loop
         vertex 4.600000e+01 1.280000e+01 3.600000e+01
         vertex 3.551147e+01 1.280000e+01 5.033087e+01
         vertex 2.800000e+01 1.280000e+01 3.600000e+01
      endloop
   endfacet
   facet normal 0.000000e+00 -1.000000e+00 0.000000e+00
      outer loop
         vertex 2.800000e+01 1.280000e+01 3.600000e+01
         vertex 3.551147e+01 1.280000e+01 5.033087e+01
         vertex 3.483647e+01 1.280000e+01 5.015000e+01
      endloop
   endfacet
   facet normal 0.000000e+00 -1.000000e+00 0.000000e+00
      outer loop
         vertex 2.800000e+01 1.280000e+01 3.600000e+01
         vertex 3.483647e+01 1.280000e+01 5.015000e+01
         vertex 3.416147e+01 1.280000e+01 5.033087e+01
      endloop
   endfacet
   facet normal 0.000000e+00 -1.000000e+00 0.000000e+00
      outer loop
         vertex 3.551147e+01 1.280000e+01 5.266914e+01
         vertex 3.600561e+01 1.280000e+01 5.217500e+01
         vertex 4.600000e+01 1.280000e+01 5.600000e+01
      endloop
   endfacet
   facet normal 0.000000e+00 -1.000000e+00 0.000000e+00
      outer loop
         vertex 4.600000e+01 1.280000e+01 5.600000e+01
         vertex 3.600561e+01 1.280000e+01 5.217500e+01
         vertex 3.618647e+01 1.280000e+01 5.150000e+01
      endloop
   endfacet
   facet normal 0.000000e+00 -1.000000e+00 -0.000000e+00
      outer loop
         vertex 4.600000e+01 1.280000e+01 5.600000e+01
         vertex 3.618647e+01 1.280000e+01 5.150000e+01
         vertex 4.600000e+01 1.280000e+01 3.600000e+01
      endloop
   endfacet
   facet normal 0.000000e+00 -1.000000e+00 0.000000e+00
      outer loop
         vertex 4.600000e+01 1.280000e+01 3.600000e+01
         vertex 3.618647e+01 1.280000e+01 5.150000e+01
         vertex 3.600561e+01 1.280000e+01 5.082500e+01
      endloop
   endfacet
   facet normal 0.000000e+00 -1.000000e+00 0.000000e+00
      outer loop
         vertex 4.600000e+01 1.280000e+01 3.600000e+01
         vertex 3.600561e+01 1.280000e+01 5.082500e+01
         vertex 3.551147e+01 1.280000e+01 5.033087e+01
      endloop
   endfacet
   facet normal -2.588176e-01 0.000000e+00 -9.659262e-01
      outer loop
         vertex 3.483647e+01 1.280000e+01 5.285000e+01
         vertex 3.483647e+01 1.780000e+01 5.285000e+01
         vertex 3.551147e+01 1.280000e+01 5.266914e+01
      endloop
   endfacet
   facet normal -2.588176e-01 0.000000e+00 -9.659262e-01
      outer loop
         vertex 3.551147e+01 1.280000e+01 5.266914e+01
         vertex 3.483647e+01 1.780000e+01 5.285000e+01
         vertex 3.551147e+01 1.780000e+01 5.266914e+01
      endloop
   endfacet
   facet normal -7.071081e-01 0.000000e+00 -7.071054e-01
      outer loop
         vertex 3.551147e+01 1.280000e+01 5.266914e+01
         vertex 3.551147e+01 1.780000e+01 5.266914e+01
         vertex 3.600561e+01 1.280000e+01 5.217500e+01
      endloop
   endfacet
   facet normal -7.071081e-01 0.000000e+00 -7.071054e-01
      outer loop
         vertex 3.600561e+01 1.280000e+01 5.217500e+01
         vertex 3.551147e+01 1.780000e+01 5.266914e+01
         vertex 3.600561e+01 1.780000e+01 5.217500e+01
      endloop
   endfacet
   facet normal -9.659259e-01 0.000000e+00 -2.588189e-01
      outer loop
         vertex 3.600561e+01 1.280000e+01 5.217500e+01
         vertex 3.600561e+01 1.780000e+01 5.217500e+01
         vertex 3.618647e+01 1.280000e+01 5.150000e+01
      endloop
   endfacet
   facet normal -9.659259e-01 0.000000e+00 -2.588189e-01
      outer loop
         vertex 3.618647e+01 1.280000e+01 5.150000e+01
         vertex 3.600561e+01 1.780000e+01 5.217500e+01
         vertex 3.618647e+01 1.780000e+01 5.150000e+01
      endloop
   endfacet
   facet normal -9.659257e-01 0.000000e+00 2.588195e-01
      outer loop
         vertex 3.618647e+01 1.280000e+01 5.150000e+01
         vertex 3.618647e+01 1.780000e+01 5.150000e+01
         vertex 3.600561e+01 1.280000e+01 5.082500e+01
      endloop
   endfacet
   facet normal -9.659257e-01 0.000000e+00 2.588195e-01
      outer loop
         vertex 3.600561e+01 1.280000e+01 5.082500e+01
         vertex 3.618647e+01 1.780000e+01 5.150000e+01
         vertex 3.600561e+01 1.780000e+01 5.082500e+01
      endloop
   endfacet
   facet normal -7.071081e-01 0.000000e+00 7.071054e-01
      outer loop
         vertex 3.600561e+01 1.280000e+01 5.082500e+01
         vertex 3.600561e+01 1.780000e+01 5.082500e+01
         vertex 3.551147e+01 1.280000e+01 5.033087e+01
      endloop
   endfacet
   facet normal -7.071081e-01 0.000000e+00 7.071054e-01
      outer loop
         vertex 3.551147e+01 1.280000e+01 5.033087e+01
         vertex 3.600561e+01 1.780000e+01 5.082500e+01
         vertex 3.551147e+01 1.780000e+01 5.033087e+01
      endloop
   endfacet
   facet normal -2.588176e-01 0.000000e+00 9.659262e-01
      outer loop
         vertex 3.551147e+01 1.280000e+01 5.033087e+01
         vertex 3.551147e+01 1.780000e+01 5.033087e+01
         vertex 3.483647e+01 1.280000e+01 5.015000e+01
      endloop
   endfacet
   facet normal -2.588176e-01 0.000000e+00 9.659262e-01
      outer loop
         vertex 3.483647e+01 1.280000e+01 5.015000e+01
         vertex 3.551147e+01 1.780000e+01 5.033087e+01
         vertex 3.483647e+01 1.780000e+01 5.015000e+01
      endloop
   endfacet
   facet normal 2.588178e-01 -0.000000e+00 9.659262e-01
      outer loop
         vertex 3.483647e+01 1.280000e+01 5.015000e+01
         vertex 3.483647e+01 1.780000e+01 5.015000e+01
         vertex 3.416147e+01 1.280000e+01 5.033087e+01
      endloop
   endfacet
   facet normal 2.588178e-01 -0.000000e+00 9.659262e-01
      outer loop
         vertex 3.416147e+01 1.280000e+01 5.033087e+01
         vertex 3.483647e+01 1.780000e+01 5.015000e+01
         vertex 3.416147e+01 1.780000e+01 5.033087e+01
      endloop
   endfacet
   facet normal 7.071074e-01 -0.000000e+00 7.071061e-01
      outer loop
         vertex 3.416147e+01 1.280000e+01 5.033087e+01
         vertex 3.416147e+01 1.780000e+01 5.033087e+01
         vertex 3.366734e+01 1.280000e+01 5.082500e+01
      endloop
   endfacet
   facet normal 7.071074e-01 -0.000000e+00 7.071061e-01
      outer loop
         vertex 3.366734e+01 1.280000e+01 5.082500e+01
         vertex 3.416147e+01 1.780000e+01 5.033087e+01
         vertex 3.366734e+01 1.780000e+01 5.082500e+01
      endloop
   endfacet
   facet normal 9.659257e-01 -0.000000e+00 2.588195e-01
      outer loop
         vertex 3.366734e+01 1.280000e+01 5.082500e+01
         vertex 3.366734e+01 1.780000e+01 5.082500e+01
         vertex 3.348647e+01 1.280000e+01 5.150000e+01
      endloop
   endfacet
   facet normal 9.659257e-01 -0.000000e+00 2.588195e-01
      outer loop
         vertex 3.348647e+01 1.280000e+01 5.150000e+01
         vertex 3.366734e+01 1.780000e+01 5.082500e+01
         vertex 3.348647e+01 1.780000e+01 5.150000e+01
      endloop
   endfacet
   facet normal 9.659259e-01 0.000000e+00 -2.588189e-01
      outer loop
         vertex 3.348647e+01 1.280000e+01 5.150000e+01
         vertex 3.348647e+01 1.780000e+01 5.150000e+01
         vertex 3.366734e+01 1.280000e+01 5.217500e+01
      endloop
   endfacet
   facet normal 9.659259e-01 0.000000e+00 -2.588189e-01
      outer loop
         vertex 3.366734e+01 1.280000e+01 5.217500e+01
         vertex 3.348647e+01 1.780000e+01 5.150000e+01
         vertex 3.366734e+01 1.780000e+01 5.217500e+01
      endloop
   endfacet
   facet normal 7.071074e-01 0.000000e+00 -7.071061e-01
      outer loop
         vertex 3.366734e+01 1.280000e+01 5.217500e+01
         vertex 3.366734e+01 1.780000e+01 5.217500e+01
         vertex 3.416147e+01 1.280000e+01 5.266914e+01
      endloop
   endfacet
   facet normal 7.071074e-01 0.000000e+00 -7.071061e-01
      outer loop
         vertex 3.416147e+01 1.280000e+01 5.266914e+01
         vertex 3.366734e+01 1.780000e+01 5.217500e+01
         vertex 3.416147e+01 1.780000e+01 5.266914e+01
      endloop
   endfacet
   facet normal 2.588178e-01 0.000000e+00 -9.659262e-01
      outer loop
         vertex 3.416147e+01 1.280000e+01 5.266914e+01
         vertex 3.416147e+01 1.780000e+01 5.266914e+01
         vertex 3.483647e+01 1.280000e+01 5.285000e+01
      endloop
   endfacet
   facet normal 2.588178e-01 0.000000e+00 -9.659262e-01
      outer loop
         vertex 3.483647e+01 1.280000e+01 5.285000e+01
         vertex 3.416147e+01 1.780000e+01 5.266914e+01
         vertex 3.483647e+01 1.780000e+01 5.285000e+01
      endloop
   endfacet
   facet normal 0.000000e+00 1.000000e+00 0.000000e+00
      outer loop
         vertex 3.682584e+01 1.560000e+01 1.184805e+01
         vertex 3.555442e+01 1.560000e+01 1.118075e+01
         vertex 3.483647e+01 1.560000e+01 1.249358e+01
      endloop
   endfacet
   facet normal 0.000000e+00 1.000000e+00 0.000000e+00
      outer loop
         vertex 3.483647e+01 1.560000e+01 1.249358e+01
         vertex 3.555442e+01 1.560000e+01 1.118075e+01
         vertex 3.411852e+01 1.560000e+01 1.118075e+01
      endloop
   endfacet
   facet normal 0.000000e+00 1.000000e+00 0.000000e+00
      outer loop
         vertex 3.483647e+01 1.560000e+01 1.249358e+01
         vertex 3.411852e+01 1.560000e+01 1.118075e+01
         vertex 3.403647e+01 1.560000e+01 1.270794e+01
      endloop
   endfacet
   facet normal 0.000000e+00 1.000000e+00 0.000000e+00
      outer loop
         vertex 3.403647e+01 1.560000e+01 1.270794e+01
         vertex 3.411852e+01 1.560000e+01 1.118075e+01
         vertex 3.284710e+01 1.560000e+01 1.184805e+01
      endloop
   endfacet
   facet normal 0.000000e+00 1.000000e+00 0.000000e+00
      outer loop
         vertex 3.403647e+01 1.560000e+01 1.270794e+01
         vertex 3.284710e+01 1.560000e+01 1.184805e+01
         vertex 3.345083e+01 1.560000e+01 1.329358e+01
      endloop
   endfacet
   facet normal 0.000000e+00 1.000000e+00 0.000000e+00
      outer loop
         vertex 3.345083e+01 1.560000e+01 1.329358e+01
         vertex 3.284710e+01 1.560000e+01 1.184805e+01
         vertex 3.203142e+01 1.560000e+01 1.302976e+01
      endloop
   endfacet
   facet normal 0.000000e+00 1.000000e+00 0.000000e+00
      outer loop
         vertex 3.345083e+01 1.560000e+01 1.329358e+01
         vertex 3.203142e+01 1.560000e+01 1.302976e+01
         vertex 3.323647e+01 1.560000e+01 1.409358e+01
      endloop
   endfacet
   facet normal 0.000000e+00 1.000000e+00 0.000000e+00
      outer loop
         vertex 3.323647e+01 1.560000e+01 1.409358e+01
         vertex 3.203142e+01 1.560000e+01 1.302976e+01
         vertex 3.185834e+01 1.560000e+01 1.445519e+01
      endloop
   endfacet
   facet normal 0.000000e+00 1.000000e+00 -0.000000e+00
      outer loop
         vertex 3.323647e+01 1.560000e+01 1.409358e+01
         vertex 3.185834e+01 1.560000e+01 1.445519e+01
         vertex 3.345083e+01 1.560000e+01 1.489358e+01
      endloop
   endfacet
   facet normal 0.000000e+00 1.000000e+00 0.000000e+00
      outer loop
         vertex 3.345083e+01 1.560000e+01 1.489358e+01
         vertex 3.185834e+01 1.560000e+01 1.445519e+01
         vertex 3.236752e+01 1.560000e+01 1.579777e+01
      endloop
   endfacet
   facet normal 0.000000e+00 1.000000e+00 -0.000000e+00
      outer loop
         vertex 3.345083e+01 1.560000e+01 1.489358e+01
         vertex 3.236752e+01 1.560000e+01 1.579777e+01
         vertex 3.403647e+01 1.560000e+01 1.547922e+01
      endloop
   endfacet
   facet normal 0.000000e+00 1.000000e+00 0.000000e+00
      outer loop
         vertex 3.403647e+01 1.560000e+01 1.547922e+01
         vertex 3.236752e+01 1.560000e+01 1.579777e+01
         vertex 3.344230e+01 1.560000e+01 1.674995e+01
      endloop
   endfacet
   facet normal 0.000000e+00 1.000000e+00 -0.000000e+00
      outer loop
         vertex 3.403647e+01 1.560000e+01 1.547922e+01
         vertex 3.344230e+01 1.560000e+01 1.674995e+01
         vertex 3.483647e+01 1.560000e+01 1.569358e+01
      endloop
   endfacet
   facet normal 0.000000e+00 1.000000e+00 -0.000000e+00
      outer loop
         vertex 3.483647e+01 1.560000e+01 1.569358e+01
         vertex 3.344230e+01 1.560000e+01 1.674995e+01
         vertex 3.483647e+01 1.560000e+01 1.709358e+01
      endloop
   endfacet
   facet normal -0.000000e+00 1.000000e+00 0.000000e+00
      outer loop
         vertex 3.483647e+01 1.560000e+01 1.569358e+01
         vertex 3.483647e+01 1.560000e+01 1.709358e+01
         vertex 3.563647e+01 1.560000e+01 1.547922e+01
      endloop
   endfacet
   facet normal 0.000000e+00 1.000000e+00 -0.000000e+00
      outer loop
         vertex 3.563647e+01 1.560000e+01 1.547922e+01
         vertex 3.483647e+01 1.560000e+01 1.709358e+01
         vertex 3.623064e+01 1.560000e+01 1.674995e+01
      endloop
   endfacet
   facet normal -0.000000e+00 1.000000e+00 0.000000e+00
      outer loop
         vertex 3.563647e+01 1.560000e+01 1.547922e+01
         vertex 3.623064e+01 1.560000e+01 1.674995e+01
         vertex 3.622211e+01 1.560000e+01 1.489358e+01
      endloop
   endfacet
   facet normal 0.000000e+00 1.000000e+00 0.000000e+00
      outer loop
         vertex 3.622211e+01 1.560000e+01 1.489358e+01
         vertex 3.623064e+01 1.560000e+01 1.674995e+01
         vertex 3.730542e+01 1.560000e+01 1.579777e+01
      endloop
   endfacet
   facet normal -0.000000e+00 1.000000e+00 0.000000e+00
      outer loop
         vertex 3.622211e+01 1.560000e+01 1.489358e+01
         vertex 3.730542e+01 1.560000e+01 1.579777e+01
         vertex 3.643647e+01 1.560000e+01 1.409358e+01
      endloop
   endfacet
   facet normal 0.000000e+00 1.000000e+00 0.000000e+00
      outer loop
         vertex 3.643647e+01 1.560000e+01 1.409358e+01
         vertex 3.730542e+01 1.560000e+01 1.579777e+01
         vertex 3.781460e+01 1.560000e+01 1.445519e+01
      endloop
   endfacet
   facet normal -0.000000e+00 1.000000e+00 0.000000e+00
      outer loop
         vertex 3.643647e+01 1.560000e+01 1.409358e+01
         vertex 3.781460e+01 1.560000e+01 1.445519e+01
         vertex 3.622211e+01 1.560000e+01 1.329358e+01
      endloop
   endfacet
   facet normal -0.000000e+00 1.000000e+00 0.000000e+00
      outer loop
         vertex 3.622211e+01 1.560000e+01 1.329358e+01
         vertex 3.781460e+01 1.560000e+01 1.445519e+01
         vertex 3.764152e+01 1.560000e+01 1.302976e+01
      endloop
   endfacet
   facet normal 0.000000e+00 1.000000e+00 0.000000e+00
      outer loop
         vertex 3.622211e+01 1.560000e+01 1.329358e+01
         vertex 3.764152e+01 1.560000e+01 1.302976e+01
         vertex 3.563647e+01 1.560000e+01 1.270794e+01
      endloop
   endfacet
   facet normal -0.000000e+00 1.000000e+00 0.000000e+00
      outer loop
         vertex 3.563647e+01 1.560000e+01 1.270794e+01
         vertex 3.764152e+01 1.560000e+01 1.302976e+01
         vertex 3.682584e+01 1.560000e+01 1.184805e+01
      endloop
   endfacet
   facet normal 0.000000e+00 1.000000e+00 0.000000e+00
      outer loop
         vertex 3.563647e+01 1.560000e+01 1.270794e+01
         vertex 3.682584e+01 1.560000e+01 1.184805e+01
         vertex 3.483647e+01 1.560000e+01 1.249358e+01
      endloop
   endfacet
   facet normal -2.393157e-01 0.000000e+00 -9.709418e-01
      outer loop
         vertex 3.483647e+01 1.560000e+01 1.709358e+01
         vertex 3.483647e+01 1.780000e+01 1.709358e+01
         vertex 3.623064e+01 1.560000e+01 1.674995e+01
      endloop
   endfacet
   facet normal -2.393157e-01 0.000000e+00 -9.709418e-01
      outer loop
         vertex 3.623064e+01 1.560000e+01 1.674995e+01
         vertex 3.483647e+01 1.780000e+01 1.709358e+01
         vertex 3.623064e+01 1.780000e+01 1.674995e+01
      endloop
   endfacet
   facet normal -6.631225e-01 0.000000e+00 -7.485109e-01
      outer loop
         vertex 3.623064e+01 1.560000e+01 1.674995e+01
         vertex 3.623064e+01 1.780000e+01 1.674995e+01
         vertex 3.730542e+01 1.560000e+01 1.579777e+01
      endloop
   endfacet
   facet normal -6.631225e-01 0.000000e+00 -7.485109e-01
      outer loop
         vertex 3.730542e+01 1.560000e+01 1.579777e+01
         vertex 3.623064e+01 1.780000e+01 1.674995e+01
         vertex 3.730542e+01 1.780000e+01 1.579777e+01
      endloop
   endfacet
   facet normal -9.350164e-01 0.000000e+00 -3.546046e-01
      outer loop
         vertex 3.730542e+01 1.560000e+01 1.579777e+01
         vertex 3.730542e+01 1.780000e+01 1.579777e+01
         vertex 3.781460e+01 1.560000e+01 1.445519e+01
      endloop
   endfacet
   facet normal -9.350164e-01 0.000000e+00 -3.546046e-01
      outer loop
         vertex 3.781460e+01 1.560000e+01 1.445519e+01
         vertex 3.730542e+01 1.780000e+01 1.579777e+01
         vertex 3.781460e+01 1.780000e+01 1.445519e+01
      endloop
   endfacet
   facet normal -9.927089e-01 0.000000e+00 1.205367e-01
      outer loop
         vertex 3.781460e+01 1.560000e+01 1.445519e+01
         vertex 3.781460e+01 1.780000e+01 1.445519e+01
         vertex 3.764152e+01 1.560000e+01 1.302976e+01
      endloop
   endfacet
   facet normal -9.927089e-01 0.000000e+00 1.205367e-01
      outer loop
         vertex 3.764152e+01 1.560000e+01 1.302976e+01
         vertex 3.781460e+01 1.780000e+01 1.445519e+01
         vertex 3.764152e+01 1.780000e+01 1.302976e+01
      endloop
   endfacet
   facet normal -8.229839e-01 0.000000e+00 5.680647e-01
      outer loop
         vertex 3.764152e+01 1.560000e+01 1.302976e+01
         vertex 3.764152e+01 1.780000e+01 1.302976e+01
         vertex 3.682584e+01 1.560000e+01 1.184805e+01
      endloop
   endfacet
   facet normal -8.229839e-01 0.000000e+00 5.680647e-01
      outer loop
         vertex 3.682584e+01 1.560000e+01 1.184805e+01
         vertex 3.764152e+01 1.780000e+01 1.302976e+01
         vertex 3.682584e+01 1.780000e+01 1.184805e+01
      endloop
   endfacet
   facet normal -4.647237e-01 0.000000e+00 8.854557e-01
      outer loop
         vertex 3.682584e+01 1.560000e+01 1.184805e+01
         vertex 3.682584e+01 1.780000e+01 1.184805e+01
         vertex 3.555442e+01 1.560000e+01 1.118075e+01
      endloop
   endfacet
   facet normal -4.647237e-01 0.000000e+00 8.854557e-01
      outer loop
         vertex 3.555442e+01 1.560000e+01 1.118075e+01
         vertex 3.682584e+01 1.780000e+01 1.184805e+01
         vertex 3.555442e+01 1.780000e+01 1.118075e+01
      endloop
   endfacet
   facet normal 0.000000e+00 -0.000000e+00 1.000000e+00
      outer loop
         vertex 3.555442e+01 1.560000e+01 1.118075e+01
         vertex 3.555442e+01 1.780000e+01 1.118075e+01
         vertex 3.411852e+01 1.560000e+01 1.118075e+01
      endloop
   endfacet
   facet normal 0.000000e+00 0.000000e+00 1.000000e+00
      outer loop
         vertex 3.411852e+01 1.560000e+01 1.118075e+01
         vertex 3.555442e+01 1.780000e+01 1.118075e+01
         vertex 3.411852e+01 1.780000e+01 1.118075e+01
      endloop
   endfacet
   facet normal 4.647238e-01 -0.000000e+00 8.854557e-01
      outer loop
         vertex 3.411852e+01 1.560000e+01 1.118075e+01
         vertex 3.411852e+01 1.780000e+01 1.118075e+01
         vertex 3.284710e+01 1.560000e+01 1.184805e+01
      endloop
   endfacet
   facet normal 4.647238e-01 -0.000000e+00 8.854557e-01
      outer loop
         vertex 3.284710e+01 1.560000e+01 1.184805e+01
         vertex 3.411852e+01 1.780000e+01 1.118075e+01
         vertex 3.284710e+01 1.780000e+01 1.184805e+01
      endloop
   endfacet
   facet normal 8.229838e-01 -0.000000e+00 5.680649e-01
      outer loop
         vertex 3.284710e+01 1.560000e+01 1.184805e+01
         vertex 3.284710e+01 1.780000e+01 1.184805e+01
         vertex 3.203142e+01 1.560000e+01 1.302976e+01
      endloop
   endfacet
   facet normal 8.229838e-01 -0.000000e+00 5.680649e-01
      outer loop
         vertex 3.203142e+01 1.560000e+01 1.302976e+01
         vertex 3.284710e+01 1.780000e+01 1.184805e+01
         vertex 3.203142e+01 1.780000e+01 1.302976e+01
      endloop
   endfacet
   facet normal 9.927089e-01 -0.000000e+00 1.205367e-01
      outer loop
         vertex 3.203142e+01 1.560000e+01 1.302976e+01
         vertex 3.203142e+01 1.780000e+01 1.302976e+01
         vertex 3.185834e+01 1.560000e+01 1.445519e+01
      endloop
   endfacet
   facet normal 9.927089e-01 -0.000000e+00 1.205367e-01
      outer loop
         vertex 3.185834e+01 1.560000e+01 1.445519e+01
         vertex 3.203142e+01 1.780000e+01 1.302976e+01
         vertex 3.185834e+01 1.780000e+01 1.445519e+01
      endloop
   endfacet
   facet normal 9.350163e-01 0.000000e+00 -3.546048e-01
      outer loop
         vertex 3.185834e+01 1.560000e+01 1.445519e+01
         vertex 3.185834e+01 1.780000e+01 1.445519e+01
         vertex 3.236752e+01 1.560000e+01 1.579777e+01
      endloop
   endfacet
   facet normal 9.350163e-01 0.000000e+00 -3.546048e-01
      outer loop
         vertex 3.236752e+01 1.560000e+01 1.579777e+01
         vertex 3.185834e+01 1.780000e+01 1.445519e+01
         vertex 3.236752e+01 1.780000e+01 1.579777e+01
      endloop
   endfacet
   facet normal 6.631227e-01 0.000000e+00 -7.485107e-01
      outer loop
         vertex 3.236752e+01 1.560000e+01 1.579777e+01
         vertex 3.236752e+01 1.780000e+01 1.579777e+01
         vertex 3.344230e+01 1.560000e+01 1.674995e+01
      endloop
   endfacet
   facet normal 6.631227e-01 0.000000e+00 -7.485107e-01
      outer loop
         vertex 3.344230e+01 1.560000e+01 1.674995e+01
         vertex 3.236752e+01 1.780000e+01 1.579777e+01
         vertex 3.344230e+01 1.780000e+01 1.674995e+01
      endloop
   endfacet
   facet normal 2.393157e-01 0.000000e+00 -9.709418e-01
      outer loop
         vertex 3.344230e+01 1.560000e+01 1.674995e+01
         vertex 3.344230e+01 1.780000e+01 1.674995e+01
         vertex 3.483647e+01 1.560000e+01 1.709358e+01
      endloop
   endfacet
   facet normal 2.393157e-01 0.000000e+00 -9.709418e-01
      outer loop
         vertex 3.483647e+01 1.560000e+01 1.709358e+01
         vertex 3.344230e+01 1.780000e+01 1.674995e+01
         vertex 3.483647e+01 1.780000e+01 1.709358e+01
      endloop
   endfacet
endsolid